<svg width="15" height="30" viewBox="0 0 15 30" fill="none" xmlns="http://www.w3.org/2000/svg">
<path d="M4.78317 16.5222C4.58717 16.323 4.4316 16.086 4.32543 15.8249C4.21927 15.5638 4.16461 15.2837 4.16461 15.0008C4.16461 14.718 4.21927 14.4379 4.32543 14.1768C4.4316 13.9157 4.58717 13.6787 4.78317 13.4795L14.3814 3.66577C14.5774 3.46658 14.733 3.22959 14.8392 2.96848C14.9453 2.70737 15 2.4273 15 2.14443C15 1.86157 14.9453 1.5815 14.8392 1.32039C14.733 1.05927 14.5774 0.822286 14.3814 0.623091C13.9896 0.224005 13.4596 0 12.9072 0C12.3548 0 11.8248 0.224005 11.433 0.623091L1.83467 10.4582C0.659872 11.6635 0 13.2974 0 15.0008C0 16.7043 0.659872 18.3381 1.83467 19.5434L11.433 29.3786C11.8225 29.7744 12.3482 29.9976 12.8967 30C13.172 30.0016 13.4448 29.9475 13.6995 29.8409C13.9543 29.7343 14.1861 29.5772 14.3814 29.3786C14.5774 29.1794 14.733 28.9424 14.8392 28.6813C14.9453 28.4202 15 28.1401 15 27.8572C15 27.5744 14.9453 27.2943 14.8392 27.0332C14.733 26.7721 14.5774 26.5351 14.3814 26.3359L4.78317 16.5222Z" fill="black"/>
</svg>
