<svg width="30" height="31" viewBox="0 0 30 31" fill="none" xmlns="http://www.w3.org/2000/svg">
<path d="M15 4.05304e-06C23.2713 5.49923e-06 30 6.95305 30 15.5C30 24.047 23.2712 31 15 31C6.72875 31 -4.50634e-06 24.047 -3.01194e-06 15.5C-1.51754e-06 6.95304 6.72875 2.60684e-06 15 4.05304e-06ZM15 27.125C21.2025 27.125 26.25 21.9105 26.25 15.5C26.25 9.08946 21.2025 3.875 15 3.875C8.7975 3.875 3.75 9.08946 3.75 15.5C3.75 21.9105 8.7975 27.125 15 27.125ZM12.5 8.39584L12.5 15.5C12.5 16.1923 12.8575 16.8317 13.4375 17.1779L17.7675 19.7612C18.665 20.296 19.81 19.9795 20.3288 19.0521C20.8475 18.1247 20.5388 16.9402 19.6425 16.4055L16.25 14.3814L16.25 8.39584C16.25 7.32634 15.4113 6.45834 14.375 6.45834C13.3388 6.45834 12.5 7.32634 12.5 8.39584Z" fill="black"/>
</svg>
