<svg width="30" height="35" viewBox="0 0 30 35" fill="none" xmlns="http://www.w3.org/2000/svg">
<path d="M15 0C11.0233 0.00491446 7.21081 1.58685 4.39883 4.39883C1.58685 7.21081 0.00491446 11.0233 0 15C0 19.0371 3.14286 24.6657 9.34429 31.7271C10.0515 32.5308 10.9218 33.1745 11.8973 33.6155C12.8727 34.0565 13.9309 34.2845 15.0014 34.2845C16.0719 34.2845 17.1301 34.0565 18.1056 33.6155C19.0811 33.1745 19.9514 32.5308 20.6586 31.7271C26.8571 24.6671 30 19.0386 30 15C29.9951 11.0233 28.4132 7.21081 25.6012 4.39883C22.7892 1.58685 18.9767 0.00491446 15 0ZM17.4371 28.9014C17.1256 29.2363 16.7485 29.5034 16.3291 29.686C15.9098 29.8687 15.4574 29.9629 15 29.9629C14.5426 29.9629 14.0902 29.8687 13.6709 29.686C13.2515 29.5034 12.8744 29.2363 12.5629 28.9014C7.30143 22.9086 4.27714 17.8414 4.27714 15.0014C4.27714 12.1598 5.40597 9.4346 7.41528 7.42529C9.4246 5.41597 12.1498 4.28714 14.9914 4.28714C17.833 4.28714 20.5583 5.41597 22.5676 7.42529C24.5769 9.4346 25.7057 12.1598 25.7057 15.0014C25.7143 17.8414 22.6986 22.9086 17.4371 28.9014Z" fill="black"/>
<path d="M14.9999 8.65002C13.7672 8.65002 12.5621 9.01558 11.5372 9.70045C10.5122 10.3853 9.71329 11.3588 9.24154 12.4977C8.76979 13.6366 8.64636 14.8898 8.88686 16.0989C9.12735 17.3079 9.72097 18.4185 10.5927 19.2902C11.4643 20.1619 12.5749 20.7555 13.784 20.996C14.993 21.2365 16.2463 21.113 17.3852 20.6413C18.5241 20.1695 19.4975 19.3707 20.1824 18.3457C20.8673 17.3207 21.2328 16.1156 21.2328 14.8829C21.2309 13.2304 20.5736 11.6462 19.4052 10.4777C18.2367 9.3092 16.6524 8.65191 14.9999 8.65002ZM14.9999 16.83C14.6148 16.83 14.2384 16.7158 13.9182 16.5019C13.598 16.2879 13.3484 15.9838 13.201 15.628C13.0536 15.2722 13.0151 14.8807 13.0902 14.503C13.1654 14.1253 13.3508 13.7784 13.6231 13.506C13.8954 13.2337 14.2424 13.0483 14.6201 12.9732C14.9978 12.898 15.3893 12.9366 15.7451 13.084C16.1009 13.2313 16.405 13.4809 16.6189 13.8011C16.8329 14.1213 16.9471 14.4978 16.9471 14.8829C16.9467 15.3992 16.7414 15.8942 16.3764 16.2593C16.0113 16.6244 15.5162 16.8296 14.9999 16.83Z" fill="black"/>
</svg>
