<svg width="33" height="34" viewBox="0 0 33 34" fill="none" xmlns="http://www.w3.org/2000/svg">
<path d="M28.9 1H4.1C2.395 1 1 2.395 1 4.1V32L7.2 25.8H28.9C30.605 25.8 32 24.405 32 22.7V4.1C32 2.395 30.605 1 28.9 1ZM28.9 22.7H5.9135L4.1 24.5135V4.1H28.9V22.7Z" fill="white"/>
<path d="M16.5 21.15L18.9335 15.8335L24.25 13.4L18.9335 10.9665L16.5 5.65L14.0665 10.9665L8.75 13.4L14.0665 15.8335L16.5 21.15Z" fill="white"/>
<path d="M28.9 1H4.1C2.395 1 1 2.395 1 4.1V32L7.2 25.8H28.9C30.605 25.8 32 24.405 32 22.7V4.1C32 2.395 30.605 1 28.9 1ZM28.9 22.7H5.9135L4.1 24.5135V4.1H28.9V22.7Z" stroke="white"/>
<path d="M16.5 21.15L18.9335 15.8335L24.25 13.4L18.9335 10.9665L16.5 5.65L14.0665 10.9665L8.75 13.4L14.0665 15.8335L16.5 21.15Z" stroke="white"/>
</svg>
