<svg width="33" height="32" viewBox="0 0 33 32" fill="none" xmlns="http://www.w3.org/2000/svg">
<path d="M30.3521 11.0407L21.5865 10.2708L18.1635 2.1136C17.5478 0.628799 15.4469 0.628799 14.8312 2.1136L11.4082 10.2892L2.66069 11.0407C1.06693 11.1691 0.414943 13.1855 1.62837 14.2487L8.27504 20.0779L6.28285 28.7301C5.92063 30.3065 7.60494 31.553 8.98136 30.7098L16.4973 26.1271L24.0133 30.7281C25.3898 31.5713 27.0741 30.3248 26.7118 28.7484L24.7197 20.0779L31.3663 14.2487C32.5798 13.1855 31.9459 11.1691 30.3521 11.0407ZM16.4973 22.6992L9.68768 26.8603L11.4988 19.0147L5.48597 13.7354L13.4185 13.0388L16.4973 5.65146L19.5943 13.0571L27.5268 13.7537L21.514 19.033L23.3251 26.8786L16.4973 22.6992Z" fill="#1C1B1F" stroke="black"/>
</svg>
