$1<?xml version="1.0" encoding="utf-8"?>
<!-- Generator: Adobe Illustrator 26.0.1, SVG Export Plug-In . SVG Version: 6.00 Build 0)  -->
<svg version="1.1" id="Layer_1" xmlns="http://www.w3.org/2000/svg" xmlns:xlink="http://www.w3.org/1999/xlink" x="0px" y="0px"
	 viewBox="0 0 549.2 549.2" style="enable-background:new 0 0 549.2 549.2;" xml:space="preserve">
<style type="text/css">
	.clicked{fill:#254E6A;}
	.unassigned{fill:#E2EFE6;}
	.assigned{fill:#56B0CC;stroke:#254E6A;stroke-width:0.5;stroke-miterlimit:10;}
	.st3{fill:#E8F5F9;}
	.st4{clip-path:url(#SVGID_00000014621774596685053910000009287791876788460733_);}
	.st5{display:none;}
	.st6{display:inline;}
	.st7{fill:none;stroke:#24506B;stroke-width:0.25;stroke-miterlimit:10;}
	.st8{fill:none;stroke:#24506B;stroke-width:0.5;stroke-miterlimit:10;}
	.st9{clip-path:url(#SVGID_00000150064567870221367870000017995602616188758971_);}
	.st10{clip-path:url(#SVGID_00000177458773556744339890000003834343601206638468_);}
	.st11{fill:#FFFFFF;stroke:#24506B;stroke-width:0.5;stroke-miterlimit:10;}
	.st12{fill:none;}
	.st13{fill:#35BA22;}
	.st14{enable-background:new    ;}
	.st15{fill:#FFFFFF;}
	.st16{fill:#EA1B11;}
	.st17{fill:#F9F8F3;}
</style>
<g id="_x3C_colour_x3E_">
	<rect id="_x3C_clicked_x3E_" x="15.5" y="483.1" class="clicked" width="23.7" height="23.7"/>
	<rect id="_x3C_non_assigned_x3E_" x="15.5" y="512.6" class="unassigned" width="23.7" height="23.7"/>
	<rect id="_x3C_assigned_x3E_" x="15.5" y="455.3" class="assigned" width="23.7" height="23.7"/>
</g>
<g id="Layer_1_00000078008789202663611310000000120151748141201539_">
	<rect id="_x3C_ground_x3E_" y="0" class="st3" width="549.2" height="549.2"/>
	<g id="_x3C_shades_x3E_">
		<g>
			<g>
				<g>
					<g>
						<defs>
							<polygon id="SVGID_1_" points="422.4,498 385.8,497.4 359.7,494.2 361.6,410.2 422.1,410.2 							"/>
						</defs>
						<clipPath id="SVGID_00000013179924875709074330000001942389005044894898_">
							<use xlink:href="#SVGID_1_"  style="overflow:visible;"/>
						</clipPath>
						<g style="clip-path:url(#SVGID_00000013179924875709074330000001942389005044894898_);">
							<g class="st5">
								<g class="st6">
									<polyline class="st7" points="380.9,561.1 385.3,557.9 389.7,554.8 394.1,551.7 398.5,548.6 402.9,545.5 407.3,542.3 
										411.7,539.2 416.1,536.1 420.6,533 425,529.9 429.4,526.7 433.8,523.6 438.2,520.5 442.6,517.4 447,514.3 451.4,511.1 
										455.8,508 460.2,504.9 464.6,501.8 469,498.7 473.4,495.5 477.8,492.4 482.2,489.3 486.6,486.2 491,483.1 									"/>
								</g>
								<g class="st6">
									<polyline class="st7" points="377.8,556.6 382.2,553.5 386.6,550.4 391,547.3 395.4,544.2 399.8,541 404.2,537.9 
										408.6,534.8 413,531.7 417.4,528.6 421.8,525.5 426.2,522.3 430.6,519.2 435.1,516.1 439.5,513 443.9,509.9 448.3,506.7 
										452.7,503.6 457.1,500.5 461.5,497.4 465.9,494.3 470.3,491.1 474.7,488 479.1,484.9 483.5,481.8 487.9,478.7 									"/>
								</g>
								<g class="st6">
									<polyline class="st7" points="374.7,552.2 379.1,549.1 383.5,546 387.9,542.9 392.3,539.8 396.7,536.6 401.1,533.5 
										405.5,530.4 409.9,527.3 414.3,524.2 418.7,521 423.1,517.9 427.5,514.8 431.9,511.7 436.3,508.6 440.7,505.5 445.1,502.3 
										449.5,499.2 454,496.1 458.4,493 462.8,489.9 467.2,486.7 471.6,483.6 476,480.5 480.4,477.4 484.8,474.3 									"/>
								</g>
								<g class="st6">
									<polyline class="st7" points="371.6,547.8 376,544.7 380.4,541.6 384.8,538.5 389.2,535.4 393.6,532.2 398,529.1 
										402.4,526 406.8,522.9 411.2,519.8 415.6,516.6 420,513.5 424.4,510.4 428.8,507.3 433.2,504.2 437.6,501 442,497.9 
										446.4,494.8 450.8,491.7 455.2,488.6 459.6,485.5 464,482.3 468.5,479.2 472.9,476.1 477.3,473 481.7,469.9 									"/>
								</g>
								<g class="st6">
									<polyline class="st7" points="368.4,543.4 372.8,540.3 377.2,537.2 381.7,534.1 386.1,531 390.5,527.8 394.9,524.7 
										399.3,521.6 403.7,518.5 408.1,515.4 412.5,512.2 416.9,509.1 421.3,506 425.7,502.9 430.1,499.8 434.5,496.6 438.9,493.5 
										443.3,490.4 447.7,487.3 452.1,484.2 456.5,481 460.9,477.9 465.3,474.8 469.7,471.7 474.1,468.6 478.5,465.5 									"/>
								</g>
								<g class="st6">
									<polyline class="st7" points="365.3,539 369.7,535.9 374.1,532.8 378.5,529.7 382.9,526.6 387.3,523.4 391.7,520.3 
										396.1,517.2 400.6,514.1 405,511 409.4,507.8 413.8,504.7 418.2,501.6 422.6,498.5 427,495.4 431.4,492.2 435.8,489.1 
										440.2,486 444.6,482.9 449,479.8 453.4,476.6 457.8,473.5 462.2,470.4 466.6,467.3 471,464.2 475.4,461 									"/>
								</g>
								<g class="st6">
									<polyline class="st7" points="362.2,534.6 366.6,531.5 371,528.4 375.4,525.3 379.8,522.1 384.2,519 388.6,515.9 
										393,512.8 397.4,509.7 401.8,506.6 406.2,503.4 410.6,500.3 415,497.2 419.5,494.1 423.9,491 428.3,487.8 432.7,484.7 
										437.1,481.6 441.5,478.5 445.9,475.4 450.3,472.2 454.7,469.1 459.1,466 463.5,462.9 467.9,459.8 472.3,456.6 									"/>
								</g>
								<g class="st6">
									<polyline class="st7" points="359.1,530.2 363.5,527.1 367.9,524 372.3,520.9 376.7,517.7 381.1,514.6 385.5,511.5 
										389.9,508.4 394.3,505.3 398.7,502.1 403.1,499 407.5,495.9 411.9,492.8 416.3,489.7 420.7,486.6 425.1,483.4 429.5,480.3 
										434,477.2 438.4,474.1 442.8,471 447.2,467.8 451.6,464.7 456,461.6 460.4,458.5 464.8,455.4 469.2,452.2 									"/>
								</g>
								<g class="st6">
									<polyline class="st7" points="356,525.8 360.4,522.7 364.8,519.6 369.2,516.5 373.6,513.3 378,510.2 382.4,507.1 
										386.8,504 391.2,500.9 395.6,497.7 400,494.6 404.4,491.5 408.8,488.4 413.2,485.3 417.6,482.1 422,479 426.4,475.9 
										430.8,472.8 435.2,469.7 439.6,466.5 444,463.4 448.4,460.3 452.9,457.2 457.3,454.1 461.7,451 466.1,447.8 									"/>
								</g>
								<g class="st6">
									<polyline class="st7" points="352.8,521.4 357.2,518.3 361.6,515.2 366.1,512.1 370.5,508.9 374.9,505.8 379.3,502.7 
										383.7,499.6 388.1,496.5 392.5,493.3 396.9,490.2 401.3,487.1 405.7,484 410.1,480.9 414.5,477.7 418.9,474.6 423.3,471.5 
										427.7,468.4 432.1,465.3 436.5,462.1 440.9,459 445.3,455.9 449.7,452.8 454.1,449.7 458.5,446.5 462.9,443.4 									"/>
								</g>
								<g class="st6">
									<polyline class="st7" points="349.7,517 354.1,513.9 358.5,510.8 362.9,507.7 367.3,504.5 371.7,501.4 376.1,498.3 
										380.6,495.2 385,492.1 389.4,488.9 393.8,485.8 398.2,482.7 402.6,479.6 407,476.5 411.4,473.3 415.8,470.2 420.2,467.1 
										424.6,464 429,460.9 433.4,457.7 437.8,454.6 442.2,451.5 446.6,448.4 451,445.3 455.4,442.1 459.8,439 									"/>
								</g>
								<g class="st6">
									<polyline class="st7" points="346.6,512.6 351,509.5 355.4,506.4 359.8,503.2 364.2,500.1 368.6,497 373,493.9 
										377.4,490.8 381.8,487.6 386.2,484.5 390.6,481.4 395,478.3 399.5,475.2 403.9,472.1 408.3,468.9 412.7,465.8 417.1,462.7 
										421.5,459.6 425.9,456.5 430.3,453.3 434.7,450.2 439.1,447.1 443.5,444 447.9,440.9 452.3,437.7 456.7,434.6 									"/>
								</g>
								<g class="st6">
									<polyline class="st7" points="343.5,508.2 347.9,505.1 352.3,502 356.7,498.8 361.1,495.7 365.5,492.6 369.9,489.5 
										374.3,486.4 378.7,483.2 383.1,480.1 387.5,477 391.9,473.9 396.3,470.8 400.7,467.6 405.1,464.5 409.5,461.4 414,458.3 
										418.4,455.2 422.8,452.1 427.2,448.9 431.6,445.8 436,442.7 440.4,439.6 444.8,436.5 449.2,433.3 453.6,430.2 									"/>
								</g>
								<g class="st6">
									<polyline class="st7" points="340.4,503.8 344.8,500.7 349.2,497.6 353.6,494.4 358,491.3 362.4,488.2 366.8,485.1 
										371.2,482 375.6,478.8 380,475.7 384.4,472.6 388.8,469.5 393.2,466.4 397.6,463.2 402,460.1 406.4,457 410.8,453.9 
										415.2,450.8 419.6,447.6 424,444.5 428.4,441.4 432.9,438.3 437.3,435.2 441.7,432.1 446.1,428.9 450.5,425.8 									"/>
								</g>
								<g class="st6">
									<polyline class="st7" points="337.2,499.4 341.6,496.3 346.1,493.2 350.5,490 354.9,486.9 359.3,483.8 363.7,480.7 
										368.1,477.6 372.5,474.4 376.9,471.3 381.3,468.2 385.7,465.1 390.1,462 394.5,458.8 398.9,455.7 403.3,452.6 407.7,449.5 
										412.1,446.4 416.5,443.2 420.9,440.1 425.3,437 429.7,433.9 434.1,430.8 438.5,427.6 442.9,424.5 447.4,421.4 									"/>
								</g>
								<g class="st6">
									<polyline class="st7" points="334.1,495 338.5,491.9 342.9,488.7 347.3,485.6 351.7,482.5 356.1,479.4 360.6,476.3 
										365,473.2 369.4,470 373.8,466.9 378.2,463.8 382.6,460.7 387,457.6 391.4,454.4 395.8,451.3 400.2,448.2 404.6,445.1 
										409,442 413.4,438.8 417.8,435.7 422.2,432.6 426.6,429.5 431,426.4 435.4,423.2 439.8,420.1 444.2,417 									"/>
								</g>
								<g class="st6">
									<polyline class="st7" points="331,490.6 335.4,487.5 339.8,484.3 344.2,481.2 348.6,478.1 353,475 357.4,471.9 
										361.8,468.7 366.2,465.6 370.6,462.5 375,459.4 379.5,456.3 383.9,453.2 388.3,450 392.7,446.9 397.1,443.8 401.5,440.7 
										405.9,437.6 410.3,434.4 414.7,431.3 419.1,428.2 423.5,425.1 427.9,422 432.3,418.8 436.7,415.7 441.1,412.6 									"/>
								</g>
								<g class="st6">
									<polyline class="st7" points="327.9,486.2 332.3,483.1 336.7,479.9 341.1,476.8 345.5,473.7 349.9,470.6 354.3,467.5 
										358.7,464.3 363.1,461.2 367.5,458.1 371.9,455 376.3,451.9 380.7,448.7 385.1,445.6 389.5,442.5 393.9,439.4 398.4,436.3 
										402.8,433.1 407.2,430 411.6,426.9 416,423.8 420.4,420.7 424.8,417.6 429.2,414.4 433.6,411.3 438,408.2 									"/>
								</g>
								<g class="st6">
									<polyline class="st7" points="324.8,481.8 329.2,478.7 333.6,475.5 338,472.4 342.4,469.3 346.8,466.2 351.2,463.1 
										355.6,459.9 360,456.8 364.4,453.7 368.8,450.6 373.2,447.5 377.6,444.3 382,441.2 386.4,438.1 390.8,435 395.2,431.9 
										399.6,428.7 404,425.6 408.4,422.5 412.9,419.4 417.3,416.3 421.7,413.1 426.1,410 430.5,406.9 434.9,403.8 									"/>
								</g>
								<g class="st6">
									<polyline class="st7" points="321.6,477.4 326.1,474.3 330.5,471.1 334.9,468 339.3,464.9 343.7,461.8 348.1,458.7 
										352.5,455.5 356.9,452.4 361.3,449.3 365.7,446.2 370.1,443.1 374.5,439.9 378.9,436.8 383.3,433.7 387.7,430.6 
										392.1,427.5 396.5,424.3 400.9,421.2 405.3,418.1 409.7,415 414.1,411.9 418.5,408.7 422.9,405.6 427.3,402.5 431.8,399.4 
																			"/>
								</g>
								<g class="st6">
									<polyline class="st7" points="318.5,473 322.9,469.8 327.3,466.7 331.7,463.6 336.1,460.5 340.5,457.4 345,454.2 
										349.4,451.1 353.8,448 358.2,444.9 362.6,441.8 367,438.7 371.4,435.5 375.8,432.4 380.2,429.3 384.6,426.2 389,423.1 
										393.4,419.9 397.8,416.8 402.2,413.7 406.6,410.6 411,407.5 415.4,404.3 419.8,401.2 424.2,398.1 428.6,395 									"/>
								</g>
								<g class="st6">
									<polyline class="st7" points="315.4,468.6 319.8,465.4 324.2,462.3 328.6,459.2 333,456.1 337.4,453 341.8,449.8 
										346.2,446.7 350.6,443.6 355,440.5 359.5,437.4 363.9,434.2 368.3,431.1 372.7,428 377.1,424.9 381.5,421.8 385.9,418.7 
										390.3,415.5 394.7,412.4 399.1,409.3 403.5,406.2 407.9,403.1 412.3,399.9 416.7,396.8 421.1,393.7 425.5,390.6 									
										"/>
								</g>
								<g class="st6">
									<polyline class="st7" points="312.3,464.2 316.7,461 321.1,457.9 325.5,454.8 329.9,451.7 334.3,448.6 338.7,445.4 
										343.1,442.3 347.5,439.2 351.9,436.1 356.3,433 360.7,429.8 365.1,426.7 369.5,423.6 373.9,420.5 378.4,417.4 382.8,414.2 
										387.2,411.1 391.6,408 396,404.9 400.4,401.8 404.8,398.7 409.2,395.5 413.6,392.4 418,389.3 422.4,386.2 									"/>
								</g>
								<g class="st6">
									<polyline class="st7" points="309.2,459.8 313.6,456.6 318,453.5 322.4,450.4 326.8,447.3 331.2,444.2 335.6,441 
										340,437.9 344.4,434.8 348.8,431.7 353.2,428.6 357.6,425.4 362,422.3 366.4,419.2 370.8,416.1 375.2,413 379.6,409.8 
										384,406.7 388.4,403.6 392.9,400.5 397.3,397.4 401.7,394.2 406.1,391.1 410.5,388 414.9,384.9 419.3,381.8 									"/>
								</g>
								<g class="st6">
									<polyline class="st7" points="306.1,455.3 310.5,452.2 314.9,449.1 319.3,446 323.7,442.9 328.1,439.8 332.5,436.6 
										336.9,433.5 341.3,430.4 345.7,427.3 350.1,424.2 354.5,421 358.9,417.9 363.3,414.8 367.7,411.7 372.1,408.6 376.5,405.4 
										380.9,402.3 385.3,399.2 389.7,396.1 394.1,393 398.5,389.8 402.9,386.7 407.3,383.6 411.8,380.5 416.2,377.4 									"/>
								</g>
								<g class="st6">
									<polyline class="st7" points="302.9,450.9 307.3,447.8 311.7,444.7 316.1,441.6 320.5,438.5 325,435.3 329.4,432.2 
										333.8,429.1 338.2,426 342.6,422.9 347,419.8 351.4,416.6 355.8,413.5 360.2,410.4 364.6,407.3 369,404.2 373.4,401 
										377.8,397.9 382.2,394.8 386.6,391.7 391,388.6 395.4,385.4 399.8,382.3 404.2,379.2 408.6,376.1 413,373 									"/>
								</g>
							</g>
							<g>
								<g>
									<polyline class="st7" points="302.9,450.9 306.1,455.3 309.2,459.8 312.3,464.2 315.4,468.6 318.5,473 321.6,477.4 
										324.8,481.8 327.9,486.2 331,490.6 334.1,495 337.2,499.4 340.4,503.8 343.5,508.2 346.6,512.6 349.7,517 352.8,521.4 
										356,525.8 359.1,530.2 362.2,534.6 365.3,539 368.4,543.4 371.6,547.8 374.7,552.2 377.8,556.6 380.9,561.1 									"/>
								</g>
								<g>
									<polyline class="st7" points="307.3,447.8 310.5,452.2 313.6,456.6 316.7,461 319.8,465.4 322.9,469.8 326.1,474.3 
										329.2,478.7 332.3,483.1 335.4,487.5 338.5,491.9 341.6,496.3 344.8,500.7 347.9,505.1 351,509.5 354.1,513.9 357.2,518.3 
										360.4,522.7 363.5,527.1 366.6,531.5 369.7,535.9 372.8,540.3 376,544.7 379.1,549.1 382.2,553.5 385.3,557.9 									"/>
								</g>
								<g>
									<polyline class="st7" points="311.7,444.7 314.9,449.1 318,453.5 321.1,457.9 324.2,462.3 327.3,466.7 330.5,471.1 
										333.6,475.5 336.7,479.9 339.8,484.3 342.9,488.7 346.1,493.2 349.2,497.6 352.3,502 355.4,506.4 358.5,510.8 361.6,515.2 
										364.8,519.6 367.9,524 371,528.4 374.1,532.8 377.2,537.2 380.4,541.6 383.5,546 386.6,550.4 389.7,554.8 									"/>
								</g>
								<g>
									<polyline class="st7" points="316.1,441.6 319.3,446 322.4,450.4 325.5,454.8 328.6,459.2 331.7,463.6 334.9,468 
										338,472.4 341.1,476.8 344.2,481.2 347.3,485.6 350.5,490 353.6,494.4 356.7,498.8 359.8,503.2 362.9,507.7 366.1,512.1 
										369.2,516.5 372.3,520.9 375.4,525.3 378.5,529.7 381.7,534.1 384.8,538.5 387.9,542.9 391,547.3 394.1,551.7 									"/>
								</g>
								<g>
									<polyline class="st7" points="320.5,438.5 323.7,442.9 326.8,447.3 329.9,451.7 333,456.1 336.1,460.5 339.3,464.9 
										342.4,469.3 345.5,473.7 348.6,478.1 351.7,482.5 354.9,486.9 358,491.3 361.1,495.7 364.2,500.1 367.3,504.5 370.5,508.9 
										373.6,513.3 376.7,517.7 379.8,522.1 382.9,526.6 386.1,531 389.2,535.4 392.3,539.8 395.4,544.2 398.5,548.6 									"/>
								</g>
								<g>
									<polyline class="st7" points="325,435.3 328.1,439.8 331.2,444.2 334.3,448.6 337.4,453 340.5,457.4 343.7,461.8 
										346.8,466.2 349.9,470.6 353,475 356.1,479.4 359.3,483.8 362.4,488.2 365.5,492.6 368.6,497 371.7,501.4 374.9,505.8 
										378,510.2 381.1,514.6 384.2,519 387.3,523.4 390.5,527.8 393.6,532.2 396.7,536.6 399.8,541 402.9,545.5 									"/>
								</g>
								<g>
									<polyline class="st7" points="329.4,432.2 332.5,436.6 335.6,441 338.7,445.4 341.8,449.8 345,454.2 348.1,458.7 
										351.2,463.1 354.3,467.5 357.4,471.9 360.6,476.3 363.7,480.7 366.8,485.1 369.9,489.5 373,493.9 376.1,498.3 379.3,502.7 
										382.4,507.1 385.5,511.5 388.6,515.9 391.7,520.3 394.9,524.7 398,529.1 401.1,533.5 404.2,537.9 407.3,542.3 									"/>
								</g>
								<g>
									<polyline class="st7" points="333.8,429.1 336.9,433.5 340,437.9 343.1,442.3 346.2,446.7 349.4,451.1 352.5,455.5 
										355.6,459.9 358.7,464.3 361.8,468.7 365,473.2 368.1,477.6 371.2,482 374.3,486.4 377.4,490.8 380.6,495.2 383.7,499.6 
										386.8,504 389.9,508.4 393,512.8 396.1,517.2 399.3,521.6 402.4,526 405.5,530.4 408.6,534.8 411.7,539.2 									"/>
								</g>
								<g>
									<polyline class="st7" points="338.2,426 341.3,430.4 344.4,434.8 347.5,439.2 350.6,443.6 353.8,448 356.9,452.4 
										360,456.8 363.1,461.2 366.2,465.6 369.4,470 372.5,474.4 375.6,478.8 378.7,483.2 381.8,487.6 385,492.1 388.1,496.5 
										391.2,500.9 394.3,505.3 397.4,509.7 400.6,514.1 403.7,518.5 406.8,522.9 409.9,527.3 413,531.7 416.1,536.1 									"/>
								</g>
								<g>
									<polyline class="st7" points="342.6,422.9 345.7,427.3 348.8,431.7 351.9,436.1 355,440.5 358.2,444.9 361.3,449.3 
										364.4,453.7 367.5,458.1 370.6,462.5 373.8,466.9 376.9,471.3 380,475.7 383.1,480.1 386.2,484.5 389.4,488.9 392.5,493.3 
										395.6,497.7 398.7,502.1 401.8,506.6 405,511 408.1,515.4 411.2,519.8 414.3,524.2 417.4,528.6 420.6,533 									"/>
								</g>
								<g>
									<polyline class="st7" points="347,419.8 350.1,424.2 353.2,428.6 356.3,433 359.5,437.4 362.6,441.8 365.7,446.2 
										368.8,450.6 371.9,455 375,459.4 378.2,463.8 381.3,468.2 384.4,472.6 387.5,477 390.6,481.4 393.8,485.8 396.9,490.2 
										400,494.6 403.1,499 406.2,503.4 409.4,507.8 412.5,512.2 415.6,516.6 418.7,521 421.8,525.5 425,529.9 									"/>
								</g>
								<g>
									<polyline class="st7" points="351.4,416.6 354.5,421 357.6,425.4 360.7,429.8 363.9,434.2 367,438.7 370.1,443.1 
										373.2,447.5 376.3,451.9 379.5,456.3 382.6,460.7 385.7,465.1 388.8,469.5 391.9,473.9 395,478.3 398.2,482.7 401.3,487.1 
										404.4,491.5 407.5,495.9 410.6,500.3 413.8,504.7 416.9,509.1 420,513.5 423.1,517.9 426.2,522.3 429.4,526.7 									"/>
								</g>
								<g>
									<polyline class="st7" points="355.8,413.5 358.9,417.9 362,422.3 365.1,426.7 368.3,431.1 371.4,435.5 374.5,439.9 
										377.6,444.3 380.7,448.7 383.9,453.2 387,457.6 390.1,462 393.2,466.4 396.3,470.8 399.5,475.2 402.6,479.6 405.7,484 
										408.8,488.4 411.9,492.8 415,497.2 418.2,501.6 421.3,506 424.4,510.4 427.5,514.8 430.6,519.2 433.8,523.6 									"/>
								</g>
								<g>
									<polyline class="st7" points="360.2,410.4 363.3,414.8 366.4,419.2 369.5,423.6 372.7,428 375.8,432.4 378.9,436.8 
										382,441.2 385.1,445.6 388.3,450 391.4,454.4 394.5,458.8 397.6,463.2 400.7,467.6 403.9,472.1 407,476.5 410.1,480.9 
										413.2,485.3 416.3,489.7 419.5,494.1 422.6,498.5 425.7,502.9 428.8,507.3 431.9,511.7 435.1,516.1 438.2,520.5 									
										"/>
								</g>
								<g>
									<polyline class="st7" points="364.6,407.3 367.7,411.7 370.8,416.1 373.9,420.5 377.1,424.9 380.2,429.3 383.3,433.7 
										386.4,438.1 389.5,442.5 392.7,446.9 395.8,451.3 398.9,455.7 402,460.1 405.1,464.5 408.3,468.9 411.4,473.3 414.5,477.7 
										417.6,482.1 420.7,486.6 423.9,491 427,495.4 430.1,499.8 433.2,504.2 436.3,508.6 439.5,513 442.6,517.4 									"/>
								</g>
								<g>
									<polyline class="st7" points="369,404.2 372.1,408.6 375.2,413 378.4,417.4 381.5,421.8 384.6,426.2 387.7,430.6 
										390.8,435 393.9,439.4 397.1,443.8 400.2,448.2 403.3,452.6 406.4,457 409.5,461.4 412.7,465.8 415.8,470.2 418.9,474.6 
										422,479 425.1,483.4 428.3,487.8 431.4,492.2 434.5,496.6 437.6,501 440.7,505.5 443.9,509.9 447,514.3 									"/>
								</g>
								<g>
									<polyline class="st7" points="373.4,401 376.5,405.4 379.6,409.8 382.8,414.2 385.9,418.7 389,423.1 392.1,427.5 
										395.2,431.9 398.4,436.3 401.5,440.7 404.6,445.1 407.7,449.5 410.8,453.9 414,458.3 417.1,462.7 420.2,467.1 423.3,471.5 
										426.4,475.9 429.5,480.3 432.7,484.7 435.8,489.1 438.9,493.5 442,497.9 445.1,502.3 448.3,506.7 451.4,511.1 									"/>
								</g>
								<g>
									<polyline class="st7" points="377.8,397.9 380.9,402.3 384,406.7 387.2,411.1 390.3,415.5 393.4,419.9 396.5,424.3 
										399.6,428.7 402.8,433.1 405.9,437.6 409,442 412.1,446.4 415.2,450.8 418.4,455.2 421.5,459.6 424.6,464 427.7,468.4 
										430.8,472.8 434,477.2 437.1,481.6 440.2,486 443.3,490.4 446.4,494.8 449.5,499.2 452.7,503.6 455.8,508 									"/>
								</g>
								<g>
									<polyline class="st7" points="382.2,394.8 385.3,399.2 388.4,403.6 391.6,408 394.7,412.4 397.8,416.8 400.9,421.2 
										404,425.6 407.2,430 410.3,434.4 413.4,438.8 416.5,443.2 419.6,447.6 422.8,452.1 425.9,456.5 429,460.9 432.1,465.3 
										435.2,469.7 438.4,474.1 441.5,478.5 444.6,482.9 447.7,487.3 450.8,491.7 454,496.1 457.1,500.5 460.2,504.9 									"/>
								</g>
								<g>
									<polyline class="st7" points="386.6,391.7 389.7,396.1 392.9,400.5 396,404.9 399.1,409.3 402.2,413.7 405.3,418.1 
										408.4,422.5 411.6,426.9 414.7,431.3 417.8,435.7 420.9,440.1 424,444.5 427.2,448.9 430.3,453.3 433.4,457.7 436.5,462.1 
										439.6,466.5 442.8,471 445.9,475.4 449,479.8 452.1,484.2 455.2,488.6 458.4,493 461.5,497.4 464.6,501.8 									"/>
								</g>
								<g>
									<polyline class="st7" points="391,388.6 394.1,393 397.3,397.4 400.4,401.8 403.5,406.2 406.6,410.6 409.7,415 
										412.9,419.4 416,423.8 419.1,428.2 422.2,432.6 425.3,437 428.4,441.4 431.6,445.8 434.7,450.2 437.8,454.6 440.9,459 
										444,463.4 447.2,467.8 450.3,472.2 453.4,476.6 456.5,481 459.6,485.5 462.8,489.9 465.9,494.3 469,498.7 									"/>
								</g>
								<g>
									<polyline class="st7" points="395.4,385.4 398.5,389.8 401.7,394.2 404.8,398.7 407.9,403.1 411,407.5 414.1,411.9 
										417.3,416.3 420.4,420.7 423.5,425.1 426.6,429.5 429.7,433.9 432.9,438.3 436,442.7 439.1,447.1 442.2,451.5 445.3,455.9 
										448.4,460.3 451.6,464.7 454.7,469.1 457.8,473.5 460.9,477.9 464,482.3 467.2,486.7 470.3,491.1 473.4,495.5 									"/>
								</g>
								<g>
									<polyline class="st7" points="399.8,382.3 402.9,386.7 406.1,391.1 409.2,395.5 412.3,399.9 415.4,404.3 418.5,408.7 
										421.7,413.1 424.8,417.6 427.9,422 431,426.4 434.1,430.8 437.3,435.2 440.4,439.6 443.5,444 446.6,448.4 449.7,452.8 
										452.9,457.2 456,461.6 459.1,466 462.2,470.4 465.3,474.8 468.5,479.2 471.6,483.6 474.7,488 477.8,492.4 									"/>
								</g>
								<g>
									<polyline class="st7" points="404.2,379.2 407.3,383.6 410.5,388 413.6,392.4 416.7,396.8 419.8,401.2 422.9,405.6 
										426.1,410 429.2,414.4 432.3,418.8 435.4,423.2 438.5,427.6 441.7,432.1 444.8,436.5 447.9,440.9 451,445.3 454.1,449.7 
										457.3,454.1 460.4,458.5 463.5,462.9 466.6,467.3 469.7,471.7 472.9,476.1 476,480.5 479.1,484.9 482.2,489.3 									"/>
								</g>
								<g>
									<polyline class="st7" points="408.6,376.1 411.8,380.5 414.9,384.9 418,389.3 421.1,393.7 424.2,398.1 427.3,402.5 
										430.5,406.9 433.6,411.3 436.7,415.7 439.8,420.1 442.9,424.5 446.1,428.9 449.2,433.3 452.3,437.7 455.4,442.1 
										458.5,446.5 461.7,451 464.8,455.4 467.9,459.8 471,464.2 474.1,468.6 477.3,473 480.4,477.4 483.5,481.8 486.6,486.2 
																			"/>
								</g>
								<g>
									<polyline class="st7" points="413,373 416.2,377.4 419.3,381.8 422.4,386.2 425.5,390.6 428.6,395 431.8,399.4 
										434.9,403.8 438,408.2 441.1,412.6 444.2,417 447.4,421.4 450.5,425.8 453.6,430.2 456.7,434.6 459.8,439 462.9,443.4 
										466.1,447.8 469.2,452.2 472.3,456.6 475.4,461 478.5,465.5 481.7,469.9 484.8,474.3 487.9,478.7 491,483.1 									"/>
								</g>
							</g>
						</g>
					</g>
				</g>
			</g>
		</g>
		<line class="st8" x1="358.9" y1="410" x2="424.9" y2="410"/>
		<line class="st8" x1="247.4" y1="398.6" x2="354.2" y2="398.6"/>
		<g>
			<g>
				<g>
					<defs>
						<path id="SVGID_00000079481069819904156430000011677574034257548967_" d="M352.8,303.8l-2.1,91.5H251l0.9-72
							c2.4,2,5.5,3.2,8.9,3.2c7.7,0,14-6.2,14-14c0-3.7-1.4-7-3.8-9.5L352.8,303.8z"/>
					</defs>
					<clipPath id="SVGID_00000099647233670047872130000005968414121906403483_">
						<use xlink:href="#SVGID_00000079481069819904156430000011677574034257548967_"  style="overflow:visible;"/>
					</clipPath>
					<g style="clip-path:url(#SVGID_00000099647233670047872130000005968414121906403483_);">
						<g class="st5">
							<g class="st6">
								<polyline class="st7" points="285.1,444.9 289.6,441.7 294.1,438.5 298.6,435.4 303.1,432.2 307.5,429 312,425.9 
									316.5,422.7 321,419.5 325.4,416.3 329.9,413.2 334.4,410 338.9,406.8 343.3,403.7 347.8,400.5 352.3,397.3 356.8,394.1 
									361.3,391 365.7,387.8 370.2,384.6 374.7,381.5 379.2,378.3 383.6,375.1 388.1,372 392.6,368.8 397.1,365.6 								"/>
							</g>
							<g class="st6">
								<polyline class="st7" points="282,440.4 286.5,437.2 290.9,434.1 295.4,430.9 299.9,427.7 304.4,424.6 308.8,421.4 
									313.3,418.2 317.8,415 322.3,411.9 326.7,408.7 331.2,405.5 335.7,402.4 340.2,399.2 344.7,396 349.1,392.8 353.6,389.7 
									358.1,386.5 362.6,383.3 367,380.2 371.5,377 376,373.8 380.5,370.6 384.9,367.5 389.4,364.3 393.9,361.1 								"/>
							</g>
							<g class="st6">
								<polyline class="st7" points="278.8,435.9 283.3,432.8 287.8,429.6 292.2,426.4 296.7,423.2 301.2,420.1 305.7,416.9 
									310.1,413.7 314.6,410.6 319.1,407.4 323.6,404.2 328.1,401 332.5,397.9 337,394.7 341.5,391.5 346,388.4 350.4,385.2 
									354.9,382 359.4,378.9 363.9,375.7 368.3,372.5 372.8,369.3 377.3,366.2 381.8,363 386.3,359.8 390.7,356.7 								"/>
							</g>
							<g class="st6">
								<polyline class="st7" points="275.6,431.5 280.1,428.3 284.6,425.1 289.1,421.9 293.5,418.8 298,415.6 302.5,412.4 
									307,409.3 311.5,406.1 315.9,402.9 320.4,399.7 324.9,396.6 329.4,393.4 333.8,390.2 338.3,387.1 342.8,383.9 347.3,380.7 
									351.7,377.5 356.2,374.4 360.7,371.2 365.2,368 369.7,364.9 374.1,361.7 378.6,358.5 383.1,355.3 387.6,352.2 								"/>
							</g>
							<g class="st6">
								<polyline class="st7" points="272.5,427 276.9,423.8 281.4,420.6 285.9,417.5 290.4,414.3 294.8,411.1 299.3,408 
									303.8,404.8 308.3,401.6 312.8,398.4 317.2,395.3 321.7,392.1 326.2,388.9 330.7,385.8 335.1,382.6 339.6,379.4 
									344.1,376.2 348.6,373.1 353.1,369.9 357.5,366.7 362,363.6 366.5,360.4 371,357.2 375.4,354 379.9,350.9 384.4,347.7 
																	"/>
							</g>
							<g class="st6">
								<polyline class="st7" points="269.3,422.5 273.8,419.3 278.2,416.2 282.7,413 287.2,409.8 291.7,406.6 296.2,403.5 
									300.6,400.3 305.1,397.1 309.6,394 314.1,390.8 318.5,387.6 323,384.4 327.5,381.3 332,378.1 336.4,374.9 340.9,371.8 
									345.4,368.6 349.9,365.4 354.4,362.3 358.8,359.1 363.3,355.9 367.8,352.7 372.3,349.6 376.7,346.4 381.2,343.2 								"/>
							</g>
							<g class="st6">
								<polyline class="st7" points="266.1,418 270.6,414.9 275.1,411.7 279.6,408.5 284,405.3 288.5,402.2 293,399 297.5,395.8 
									301.9,392.7 306.4,389.5 310.9,386.3 315.4,383.1 319.8,380 324.3,376.8 328.8,373.6 333.3,370.5 337.8,367.3 342.2,364.1 
									346.7,360.9 351.2,357.8 355.7,354.6 360.1,351.4 364.6,348.3 369.1,345.1 373.6,341.9 378,338.7 								"/>
							</g>
							<g class="st6">
								<polyline class="st7" points="262.9,413.5 267.4,410.4 271.9,407.2 276.4,404 280.9,400.9 285.3,397.7 289.8,394.5 
									294.3,391.3 298.8,388.2 303.2,385 307.7,381.8 312.2,378.7 316.7,375.5 321.2,372.3 325.6,369.2 330.1,366 334.6,362.8 
									339.1,359.6 343.5,356.5 348,353.3 352.5,350.1 357,347 361.4,343.8 365.9,340.6 370.4,337.4 374.9,334.3 								"/>
							</g>
							<g class="st6">
								<polyline class="st7" points="259.8,409.1 264.3,405.9 268.7,402.7 273.2,399.6 277.7,396.4 282.2,393.2 286.6,390 
									291.1,386.9 295.6,383.7 300.1,380.5 304.5,377.4 309,374.2 313.5,371 318,367.8 322.5,364.7 326.9,361.5 331.4,358.3 
									335.9,355.2 340.4,352 344.8,348.8 349.3,345.6 353.8,342.5 358.3,339.3 362.8,336.1 367.2,333 371.7,329.8 								"/>
							</g>
							<g class="st6">
								<polyline class="st7" points="256.6,404.6 261.1,401.4 265.6,398.2 270,395.1 274.5,391.9 279,388.7 283.5,385.6 
									287.9,382.4 292.4,379.2 296.9,376.1 301.4,372.9 305.9,369.7 310.3,366.5 314.8,363.4 319.3,360.2 323.8,357 328.2,353.9 
									332.7,350.7 337.2,347.5 341.7,344.3 346.2,341.2 350.6,338 355.1,334.8 359.6,331.7 364.1,328.5 368.5,325.3 								"/>
							</g>
							<g class="st6">
								<polyline class="st7" points="253.4,400.1 257.9,396.9 262.4,393.8 266.9,390.6 271.3,387.4 275.8,384.3 280.3,381.1 
									284.8,377.9 289.3,374.7 293.7,371.6 298.2,368.4 302.7,365.2 307.2,362.1 311.6,358.9 316.1,355.7 320.6,352.5 
									325.1,349.4 329.5,346.2 334,343 338.5,339.9 343,336.7 347.5,333.5 351.9,330.4 356.4,327.2 360.9,324 365.4,320.8 
																	"/>
							</g>
							<g class="st6">
								<polyline class="st7" points="250.3,395.6 254.7,392.5 259.2,389.3 263.7,386.1 268.2,383 272.7,379.8 277.1,376.6 
									281.6,373.4 286.1,370.3 290.6,367.1 295,363.9 299.5,360.8 304,357.6 308.5,354.4 312.9,351.2 317.4,348.1 321.9,344.9 
									326.4,341.7 330.9,338.6 335.3,335.4 339.8,332.2 344.3,329 348.8,325.9 353.2,322.7 357.7,319.5 362.2,316.4 								"/>
							</g>
							<g class="st6">
								<polyline class="st7" points="247.1,391.2 251.6,388 256,384.8 260.5,381.6 265,378.5 269.5,375.3 274,372.1 278.4,369 
									282.9,365.8 287.4,362.6 291.9,359.4 296.3,356.3 300.8,353.1 305.3,349.9 309.8,346.8 314.3,343.6 318.7,340.4 
									323.2,337.3 327.7,334.1 332.2,330.9 336.6,327.7 341.1,324.6 345.6,321.4 350.1,318.2 354.5,315.1 359,311.9 								"/>
							</g>
							<g class="st6">
								<polyline class="st7" points="243.9,386.7 248.4,383.5 252.9,380.3 257.4,377.2 261.8,374 266.3,370.8 270.8,367.7 
									275.3,364.5 279.7,361.3 284.2,358.1 288.7,355 293.2,351.8 297.6,348.6 302.1,345.5 306.6,342.3 311.1,339.1 315.6,335.9 
									320,332.8 324.5,329.6 329,326.4 333.5,323.3 337.9,320.1 342.4,316.9 346.9,313.7 351.4,310.6 355.9,307.4 								"/>
							</g>
							<g class="st6">
								<polyline class="st7" points="240.8,382.2 245.2,379 249.7,375.9 254.2,372.7 258.7,369.5 263.1,366.3 267.6,363.2 
									272.1,360 276.6,356.8 281,353.7 285.5,350.5 290,347.3 294.5,344.2 299,341 303.4,337.8 307.9,334.6 312.4,331.5 
									316.9,328.3 321.3,325.1 325.8,322 330.3,318.8 334.8,315.6 339.2,312.4 343.7,309.3 348.2,306.1 352.7,302.9 								"/>
							</g>
							<g class="st6">
								<polyline class="st7" points="237.6,377.7 242.1,374.6 246.5,371.4 251,368.2 255.5,365 260,361.9 264.4,358.7 268.9,355.5 
									273.4,352.4 277.9,349.2 282.4,346 286.8,342.8 291.3,339.7 295.8,336.5 300.3,333.3 304.7,330.2 309.2,327 313.7,323.8 
									318.2,320.6 322.6,317.5 327.1,314.3 331.6,311.1 336.1,308 340.6,304.8 345,301.6 349.5,298.5 								"/>
							</g>
							<g class="st6">
								<polyline class="st7" points="234.4,373.3 238.9,370.1 243.4,366.9 247.8,363.7 252.3,360.6 256.8,357.4 261.3,354.2 
									265.8,351.1 270.2,347.9 274.7,344.7 279.2,341.5 283.7,338.4 288.1,335.2 292.6,332 297.1,328.9 301.6,325.7 306,322.5 
									310.5,319.3 315,316.2 319.5,313 324,309.8 328.4,306.7 332.9,303.5 337.4,300.3 341.9,297.1 346.3,294 								"/>
							</g>
							<g class="st6">
								<polyline class="st7" points="231.2,368.8 235.7,365.6 240.2,362.4 244.7,359.3 249.1,356.1 253.6,352.9 258.1,349.7 
									262.6,346.6 267.1,343.4 271.5,340.2 276,337.1 280.5,333.9 285,330.7 289.4,327.6 293.9,324.4 298.4,321.2 302.9,318 
									307.4,314.9 311.8,311.7 316.3,308.5 320.8,305.4 325.3,302.2 329.7,299 334.2,295.8 338.7,292.7 343.2,289.5 								"/>
							</g>
							<g class="st6">
								<polyline class="st7" points="228.1,364.3 232.5,361.1 237,358 241.5,354.8 246,351.6 250.5,348.4 254.9,345.3 259.4,342.1 
									263.9,338.9 268.4,335.8 272.8,332.6 277.3,329.4 281.8,326.2 286.3,323.1 290.7,319.9 295.2,316.7 299.7,313.6 
									304.2,310.4 308.7,307.2 313.1,304 317.6,300.9 322.1,297.7 326.6,294.5 331,291.4 335.5,288.2 340,285 								"/>
							</g>
							<g class="st6">
								<polyline class="st7" points="224.9,359.8 229.4,356.6 233.9,353.5 238.3,350.3 242.8,347.1 247.3,344 251.8,340.8 
									256.2,337.6 260.7,334.5 265.2,331.3 269.7,328.1 274.1,324.9 278.6,321.8 283.1,318.6 287.6,315.4 292.1,312.3 
									296.5,309.1 301,305.9 305.5,302.7 310,299.6 314.4,296.4 318.9,293.2 323.4,290.1 327.9,286.9 332.3,283.7 336.8,280.5 
																	"/>
							</g>
							<g class="st6">
								<polyline class="st7" points="221.7,355.3 226.2,352.2 230.7,349 235.2,345.8 239.6,342.7 244.1,339.5 248.6,336.3 
									253.1,333.1 257.5,330 262,326.8 266.5,323.6 271,320.5 275.5,317.3 279.9,314.1 284.4,310.9 288.9,307.8 293.4,304.6 
									297.8,301.4 302.3,298.3 306.8,295.1 311.3,291.9 315.7,288.8 320.2,285.6 324.7,282.4 329.2,279.2 333.7,276.1 								"/>
							</g>
							<g class="st6">
								<polyline class="st7" points="218.6,350.9 223,347.7 227.5,344.5 232,341.4 236.5,338.2 240.9,335 245.4,331.8 249.9,328.7 
									254.4,325.5 258.8,322.3 263.3,319.2 267.8,316 272.3,312.8 276.8,309.6 281.2,306.5 285.7,303.3 290.2,300.1 294.7,297 
									299.1,293.8 303.6,290.6 308.1,287.4 312.6,284.3 317.1,281.1 321.5,277.9 326,274.8 330.5,271.6 								"/>
							</g>
							<g class="st6">
								<polyline class="st7" points="215.4,346.4 219.9,343.2 224.3,340 228.8,336.9 233.3,333.7 237.8,330.5 242.2,327.4 
									246.7,324.2 251.2,321 255.7,317.8 260.2,314.7 264.6,311.5 269.1,308.3 273.6,305.2 278.1,302 282.5,298.8 287,295.7 
									291.5,292.5 296,289.3 300.5,286.1 304.9,283 309.4,279.8 313.9,276.6 318.4,273.5 322.8,270.3 327.3,267.1 								"/>
							</g>
							<g class="st6">
								<polyline class="st7" points="212.2,341.9 216.7,338.7 221.2,335.6 225.6,332.4 230.1,329.2 234.6,326.1 239.1,322.9 
									243.6,319.7 248,316.5 252.5,313.4 257,310.2 261.5,307 265.9,303.9 270.4,300.7 274.9,297.5 279.4,294.3 283.8,291.2 
									288.3,288 292.8,284.8 297.3,281.7 301.8,278.5 306.2,275.3 310.7,272.1 315.2,269 319.7,265.8 324.1,262.6 								"/>
							</g>
							<g class="st6">
								<polyline class="st7" points="209,337.4 213.5,334.3 218,331.1 222.5,327.9 227,324.7 231.4,321.6 235.9,318.4 240.4,315.2 
									244.9,312.1 249.3,308.9 253.8,305.7 258.3,302.6 262.8,299.4 267.2,296.2 271.7,293 276.2,289.9 280.7,286.7 285.2,283.5 
									289.6,280.4 294.1,277.2 298.6,274 303.1,270.8 307.5,267.7 312,264.5 316.5,261.3 321,258.2 								"/>
							</g>
							<g class="st6">
								<polyline class="st7" points="205.9,333 210.3,329.8 214.8,326.6 219.3,323.4 223.8,320.3 228.3,317.1 232.7,313.9 
									237.2,310.8 241.7,307.6 246.2,304.4 250.6,301.2 255.1,298.1 259.6,294.9 264.1,291.7 268.6,288.6 273,285.4 277.5,282.2 
									282,279 286.5,275.9 290.9,272.7 295.4,269.5 299.9,266.4 304.4,263.2 308.8,260 313.3,256.9 317.8,253.7 								"/>
							</g>
						</g>
						<g>
							<g>
								<polyline class="st7" points="205.9,333 209,337.4 212.2,341.9 215.4,346.4 218.6,350.9 221.7,355.3 224.9,359.8 
									228.1,364.3 231.2,368.8 234.4,373.3 237.6,377.7 240.8,382.2 243.9,386.7 247.1,391.2 250.3,395.6 253.4,400.1 
									256.6,404.6 259.8,409.1 262.9,413.5 266.1,418 269.3,422.5 272.5,427 275.6,431.5 278.8,435.9 282,440.4 285.1,444.9 
																	"/>
							</g>
							<g>
								<polyline class="st7" points="210.3,329.8 213.5,334.3 216.7,338.7 219.9,343.2 223,347.7 226.2,352.2 229.4,356.6 
									232.5,361.1 235.7,365.6 238.9,370.1 242.1,374.6 245.2,379 248.4,383.5 251.6,388 254.7,392.5 257.9,396.9 261.1,401.4 
									264.3,405.9 267.4,410.4 270.6,414.9 273.8,419.3 276.9,423.8 280.1,428.3 283.3,432.8 286.5,437.2 289.6,441.7 								"/>
							</g>
							<g>
								<polyline class="st7" points="214.8,326.6 218,331.1 221.2,335.6 224.3,340 227.5,344.5 230.7,349 233.9,353.5 237,358 
									240.2,362.4 243.4,366.9 246.5,371.4 249.7,375.9 252.9,380.3 256,384.8 259.2,389.3 262.4,393.8 265.6,398.2 268.7,402.7 
									271.9,407.2 275.1,411.7 278.2,416.2 281.4,420.6 284.6,425.1 287.8,429.6 290.9,434.1 294.1,438.5 								"/>
							</g>
							<g>
								<polyline class="st7" points="219.3,323.4 222.5,327.9 225.6,332.4 228.8,336.9 232,341.4 235.2,345.8 238.3,350.3 
									241.5,354.8 244.7,359.3 247.8,363.7 251,368.2 254.2,372.7 257.4,377.2 260.5,381.6 263.7,386.1 266.9,390.6 270,395.1 
									273.2,399.6 276.4,404 279.6,408.5 282.7,413 285.9,417.5 289.1,421.9 292.2,426.4 295.4,430.9 298.6,435.4 								"/>
							</g>
							<g>
								<polyline class="st7" points="223.8,320.3 227,324.7 230.1,329.2 233.3,333.7 236.5,338.2 239.6,342.7 242.8,347.1 
									246,351.6 249.1,356.1 252.3,360.6 255.5,365 258.7,369.5 261.8,374 265,378.5 268.2,383 271.3,387.4 274.5,391.9 
									277.7,396.4 280.9,400.9 284,405.3 287.2,409.8 290.4,414.3 293.5,418.8 296.7,423.2 299.9,427.7 303.1,432.2 								"/>
							</g>
							<g>
								<polyline class="st7" points="228.3,317.1 231.4,321.6 234.6,326.1 237.8,330.5 240.9,335 244.1,339.5 247.3,344 
									250.5,348.4 253.6,352.9 256.8,357.4 260,361.9 263.1,366.3 266.3,370.8 269.5,375.3 272.7,379.8 275.8,384.3 279,388.7 
									282.2,393.2 285.3,397.7 288.5,402.2 291.7,406.6 294.8,411.1 298,415.6 301.2,420.1 304.4,424.6 307.5,429 								"/>
							</g>
							<g>
								<polyline class="st7" points="232.7,313.9 235.9,318.4 239.1,322.9 242.2,327.4 245.4,331.8 248.6,336.3 251.8,340.8 
									254.9,345.3 258.1,349.7 261.3,354.2 264.4,358.7 267.6,363.2 270.8,367.7 274,372.1 277.1,376.6 280.3,381.1 283.5,385.6 
									286.6,390 289.8,394.5 293,399 296.2,403.5 299.3,408 302.5,412.4 305.7,416.9 308.8,421.4 312,425.9 								"/>
							</g>
							<g>
								<polyline class="st7" points="237.2,310.8 240.4,315.2 243.6,319.7 246.7,324.2 249.9,328.7 253.1,333.1 256.2,337.6 
									259.4,342.1 262.6,346.6 265.8,351.1 268.9,355.5 272.1,360 275.3,364.5 278.4,369 281.6,373.4 284.8,377.9 287.9,382.4 
									291.1,386.9 294.3,391.3 297.5,395.8 300.6,400.3 303.8,404.8 307,409.3 310.1,413.7 313.3,418.2 316.5,422.7 								"/>
							</g>
							<g>
								<polyline class="st7" points="241.7,307.6 244.9,312.1 248,316.5 251.2,321 254.4,325.5 257.5,330 260.7,334.5 263.9,338.9 
									267.1,343.4 270.2,347.9 273.4,352.4 276.6,356.8 279.7,361.3 282.9,365.8 286.1,370.3 289.3,374.7 292.4,379.2 
									295.6,383.7 298.8,388.2 301.9,392.7 305.1,397.1 308.3,401.6 311.5,406.1 314.6,410.6 317.8,415 321,419.5 								"/>
							</g>
							<g>
								<polyline class="st7" points="246.2,304.4 249.3,308.9 252.5,313.4 255.7,317.8 258.8,322.3 262,326.8 265.2,331.3 
									268.4,335.8 271.5,340.2 274.7,344.7 277.9,349.2 281,353.7 284.2,358.1 287.4,362.6 290.6,367.1 293.7,371.6 296.9,376.1 
									300.1,380.5 303.2,385 306.4,389.5 309.6,394 312.8,398.4 315.9,402.9 319.1,407.4 322.3,411.9 325.4,416.3 								"/>
							</g>
							<g>
								<polyline class="st7" points="250.6,301.2 253.8,305.7 257,310.2 260.2,314.7 263.3,319.2 266.5,323.6 269.7,328.1 
									272.8,332.6 276,337.1 279.2,341.5 282.4,346 285.5,350.5 288.7,355 291.9,359.4 295,363.9 298.2,368.4 301.4,372.9 
									304.5,377.4 307.7,381.8 310.9,386.3 314.1,390.8 317.2,395.3 320.4,399.7 323.6,404.2 326.7,408.7 329.9,413.2 								"/>
							</g>
							<g>
								<polyline class="st7" points="255.1,298.1 258.3,302.6 261.5,307 264.6,311.5 267.8,316 271,320.5 274.1,324.9 277.3,329.4 
									280.5,333.9 283.7,338.4 286.8,342.8 290,347.3 293.2,351.8 296.3,356.3 299.5,360.8 302.7,365.2 305.9,369.7 309,374.2 
									312.2,378.7 315.4,383.1 318.5,387.6 321.7,392.1 324.9,396.6 328.1,401 331.2,405.5 334.4,410 								"/>
							</g>
							<g>
								<polyline class="st7" points="259.6,294.9 262.8,299.4 265.9,303.9 269.1,308.3 272.3,312.8 275.5,317.3 278.6,321.8 
									281.8,326.2 285,330.7 288.1,335.2 291.3,339.7 294.5,344.2 297.6,348.6 300.8,353.1 304,357.6 307.2,362.1 310.3,366.5 
									313.5,371 316.7,375.5 319.8,380 323,384.4 326.2,388.9 329.4,393.4 332.5,397.9 335.7,402.4 338.9,406.8 								"/>
							</g>
							<g>
								<polyline class="st7" points="264.1,291.7 267.2,296.2 270.4,300.7 273.6,305.2 276.8,309.6 279.9,314.1 283.1,318.6 
									286.3,323.1 289.4,327.6 292.6,332 295.8,336.5 299,341 302.1,345.5 305.3,349.9 308.5,354.4 311.6,358.9 314.8,363.4 
									318,367.8 321.2,372.3 324.3,376.8 327.5,381.3 330.7,385.8 333.8,390.2 337,394.7 340.2,399.2 343.3,403.7 								"/>
							</g>
							<g>
								<polyline class="st7" points="268.6,288.6 271.7,293 274.9,297.5 278.1,302 281.2,306.5 284.4,310.9 287.6,315.4 
									290.7,319.9 293.9,324.4 297.1,328.9 300.3,333.3 303.4,337.8 306.6,342.3 309.8,346.8 312.9,351.2 316.1,355.7 
									319.3,360.2 322.5,364.7 325.6,369.2 328.8,373.6 332,378.1 335.1,382.6 338.3,387.1 341.5,391.5 344.7,396 347.8,400.5 
																	"/>
							</g>
							<g>
								<polyline class="st7" points="273,285.4 276.2,289.9 279.4,294.3 282.5,298.8 285.7,303.3 288.9,307.8 292.1,312.3 
									295.2,316.7 298.4,321.2 301.6,325.7 304.7,330.2 307.9,334.6 311.1,339.1 314.3,343.6 317.4,348.1 320.6,352.5 323.8,357 
									326.9,361.5 330.1,366 333.3,370.5 336.4,374.9 339.6,379.4 342.8,383.9 346,388.4 349.1,392.8 352.3,397.3 								"/>
							</g>
							<g>
								<polyline class="st7" points="277.5,282.2 280.7,286.7 283.8,291.2 287,295.7 290.2,300.1 293.4,304.6 296.5,309.1 
									299.7,313.6 302.9,318 306,322.5 309.2,327 312.4,331.5 315.6,335.9 318.7,340.4 321.9,344.9 325.1,349.4 328.2,353.9 
									331.4,358.3 334.6,362.8 337.8,367.3 340.9,371.8 344.1,376.2 347.3,380.7 350.4,385.2 353.6,389.7 356.8,394.1 								"/>
							</g>
							<g>
								<polyline class="st7" points="282,279 285.2,283.5 288.3,288 291.5,292.5 294.7,297 297.8,301.4 301,305.9 304.2,310.4 
									307.4,314.9 310.5,319.3 313.7,323.8 316.9,328.3 320,332.8 323.2,337.3 326.4,341.7 329.5,346.2 332.7,350.7 335.9,355.2 
									339.1,359.6 342.2,364.1 345.4,368.6 348.6,373.1 351.7,377.5 354.9,382 358.1,386.5 361.3,391 								"/>
							</g>
							<g>
								<polyline class="st7" points="286.5,275.9 289.6,280.4 292.8,284.8 296,289.3 299.1,293.8 302.3,298.3 305.5,302.7 
									308.7,307.2 311.8,311.7 315,316.2 318.2,320.6 321.3,325.1 324.5,329.6 327.7,334.1 330.9,338.6 334,343 337.2,347.5 
									340.4,352 343.5,356.5 346.7,360.9 349.9,365.4 353.1,369.9 356.2,374.4 359.4,378.9 362.6,383.3 365.7,387.8 								"/>
							</g>
							<g>
								<polyline class="st7" points="290.9,272.7 294.1,277.2 297.3,281.7 300.5,286.1 303.6,290.6 306.8,295.1 310,299.6 
									313.1,304 316.3,308.5 319.5,313 322.6,317.5 325.8,322 329,326.4 332.2,330.9 335.3,335.4 338.5,339.9 341.7,344.3 
									344.8,348.8 348,353.3 351.2,357.8 354.4,362.3 357.5,366.7 360.7,371.2 363.9,375.7 367,380.2 370.2,384.6 								"/>
							</g>
							<g>
								<polyline class="st7" points="295.4,269.5 298.6,274 301.8,278.5 304.9,283 308.1,287.4 311.3,291.9 314.4,296.4 
									317.6,300.9 320.8,305.4 324,309.8 327.1,314.3 330.3,318.8 333.5,323.3 336.6,327.7 339.8,332.2 343,336.7 346.2,341.2 
									349.3,345.6 352.5,350.1 355.7,354.6 358.8,359.1 362,363.6 365.2,368 368.3,372.5 371.5,377 374.7,381.5 								"/>
							</g>
							<g>
								<polyline class="st7" points="299.9,266.4 303.1,270.8 306.2,275.3 309.4,279.8 312.6,284.3 315.7,288.8 318.9,293.2 
									322.1,297.7 325.3,302.2 328.4,306.7 331.6,311.1 334.8,315.6 337.9,320.1 341.1,324.6 344.3,329 347.5,333.5 350.6,338 
									353.8,342.5 357,347 360.1,351.4 363.3,355.9 366.5,360.4 369.7,364.9 372.8,369.3 376,373.8 379.2,378.3 								"/>
							</g>
							<g>
								<polyline class="st7" points="304.4,263.2 307.5,267.7 310.7,272.1 313.9,276.6 317.1,281.1 320.2,285.6 323.4,290.1 
									326.6,294.5 329.7,299 332.9,303.5 336.1,308 339.2,312.4 342.4,316.9 345.6,321.4 348.8,325.9 351.9,330.4 355.1,334.8 
									358.3,339.3 361.4,343.8 364.6,348.3 367.8,352.7 371,357.2 374.1,361.7 377.3,366.2 380.5,370.6 383.6,375.1 								"/>
							</g>
							<g>
								<polyline class="st7" points="308.8,260 312,264.5 315.2,269 318.4,273.5 321.5,277.9 324.7,282.4 327.9,286.9 331,291.4 
									334.2,295.8 337.4,300.3 340.6,304.8 343.7,309.3 346.9,313.7 350.1,318.2 353.2,322.7 356.4,327.2 359.6,331.7 
									362.8,336.1 365.9,340.6 369.1,345.1 372.3,349.6 375.4,354 378.6,358.5 381.8,363 384.9,367.5 388.1,372 								"/>
							</g>
							<g>
								<polyline class="st7" points="313.3,256.9 316.5,261.3 319.7,265.8 322.8,270.3 326,274.8 329.2,279.2 332.3,283.7 
									335.5,288.2 338.7,292.7 341.9,297.1 345,301.6 348.2,306.1 351.4,310.6 354.5,315.1 357.7,319.5 360.9,324 364.1,328.5 
									367.2,333 370.4,337.4 373.6,341.9 376.7,346.4 379.9,350.9 383.1,355.3 386.3,359.8 389.4,364.3 392.6,368.8 								"/>
							</g>
							<g>
								<polyline class="st7" points="317.8,253.7 321,258.2 324.1,262.6 327.3,267.1 330.5,271.6 333.7,276.1 336.8,280.5 340,285 
									343.2,289.5 346.3,294 349.5,298.5 352.7,302.9 355.9,307.4 359,311.9 362.2,316.4 365.4,320.8 368.5,325.3 371.7,329.8 
									374.9,334.3 378,338.7 381.2,343.2 384.4,347.7 387.6,352.2 390.7,356.7 393.9,361.1 397.1,365.6 								"/>
							</g>
						</g>
					</g>
				</g>
			</g>
		</g>
		<g>
			<g>
				<g>
					<g>
						<defs>
							<path id="SVGID_00000021837323365665224300000017365896399650914232_" d="M421.8,245.8l-54.7,0.7l1.9-92
								c0.2-7.6,6.5-13.7,14.2-13.7h0.2l35.3,0.2L421.8,245.8z"/>
						</defs>
						<clipPath id="SVGID_00000053530442829773696430000012358045001640300954_">
							<use xlink:href="#SVGID_00000021837323365665224300000017365896399650914232_"  style="overflow:visible;"/>
						</clipPath>
						<g style="clip-path:url(#SVGID_00000053530442829773696430000012358045001640300954_);">
							<g class="st5">
								<g class="st6">
									<polyline class="st7" points="382.2,288.5 386.4,285.5 390.7,282.5 394.9,279.5 399.2,276.5 403.4,273.5 407.7,270.5 
										411.9,267.5 416.1,264.5 420.4,261.5 424.6,258.5 428.9,255.5 433.1,252.5 437.4,249.5 441.6,246.4 445.9,243.4 
										450.1,240.4 454.3,237.4 458.6,234.4 462.8,231.4 467.1,228.4 471.3,225.4 475.6,222.4 479.8,219.4 484.1,216.4 
										488.3,213.4 									"/>
								</g>
								<g class="st6">
									<polyline class="st7" points="379.2,284.3 383.4,281.3 387.7,278.3 391.9,275.3 396.2,272.3 400.4,269.3 404.7,266.2 
										408.9,263.2 413.1,260.2 417.4,257.2 421.6,254.2 425.9,251.2 430.1,248.2 434.4,245.2 438.6,242.2 442.8,239.2 
										447.1,236.2 451.3,233.2 455.6,230.2 459.8,227.2 464.1,224.2 468.3,221.2 472.6,218.2 476.8,215.1 481,212.1 485.3,209.1 
																			"/>
								</g>
								<g class="st6">
									<polyline class="st7" points="376.2,280 380.4,277 384.7,274 388.9,271 393.2,268 397.4,265 401.6,262 405.9,259 
										410.1,256 414.4,253 418.6,250 422.9,247 427.1,244 431.4,241 435.6,238 439.8,235 444.1,231.9 448.3,228.9 452.6,225.9 
										456.8,222.9 461.1,219.9 465.3,216.9 469.6,213.9 473.8,210.9 478,207.9 482.3,204.9 									"/>
								</g>
								<g class="st6">
									<polyline class="st7" points="373.2,275.8 377.4,272.8 381.7,269.8 385.9,266.8 390.2,263.8 394.4,260.8 398.6,257.8 
										402.9,254.8 407.1,251.7 411.4,248.7 415.6,245.7 419.9,242.7 424.1,239.7 428.3,236.7 432.6,233.7 436.8,230.7 
										441.1,227.7 445.3,224.7 449.6,221.7 453.8,218.7 458.1,215.7 462.3,212.7 466.5,209.7 470.8,206.7 475,203.7 479.3,200.6 
																			"/>
								</g>
								<g class="st6">
									<polyline class="st7" points="370.2,271.6 374.4,268.5 378.7,265.5 382.9,262.5 387.1,259.5 391.4,256.5 395.6,253.5 
										399.9,250.5 404.1,247.5 408.4,244.5 412.6,241.5 416.9,238.5 421.1,235.5 425.3,232.5 429.6,229.5 433.8,226.5 
										438.1,223.5 442.3,220.5 446.6,217.4 450.8,214.4 455.1,211.4 459.3,208.4 463.5,205.4 467.8,202.4 472,199.4 476.3,196.4 
																			"/>
								</g>
								<g class="st6">
									<polyline class="st7" points="367.2,267.3 371.4,264.3 375.7,261.3 379.9,258.3 384.1,255.3 388.4,252.3 392.6,249.3 
										396.9,246.3 401.1,243.3 405.4,240.3 409.6,237.2 413.9,234.2 418.1,231.2 422.3,228.2 426.6,225.2 430.8,222.2 
										435.1,219.2 439.3,216.2 443.6,213.2 447.8,210.2 452,207.2 456.3,204.2 460.5,201.2 464.8,198.2 469,195.2 473.3,192.2 
																			"/>
								</g>
								<g class="st6">
									<polyline class="st7" points="364.2,263.1 368.4,260.1 372.6,257.1 376.9,254 381.1,251 385.4,248 389.6,245 393.9,242 
										398.1,239 402.4,236 406.6,233 410.8,230 415.1,227 419.3,224 423.6,221 427.8,218 432.1,215 436.3,212 440.6,209 
										444.8,206 449,202.9 453.3,199.9 457.5,196.9 461.8,193.9 466,190.9 470.3,187.9 									"/>
								</g>
								<g class="st6">
									<polyline class="st7" points="361.2,258.8 365.4,255.8 369.6,252.8 373.9,249.8 378.1,246.8 382.4,243.8 386.6,240.8 
										390.9,237.8 395.1,234.8 399.4,231.8 403.6,228.8 407.8,225.8 412.1,222.7 416.3,219.7 420.6,216.7 424.8,213.7 
										429.1,210.7 433.3,207.7 437.5,204.7 441.8,201.7 446,198.7 450.3,195.7 454.5,192.7 458.8,189.7 463,186.7 467.3,183.7 
																			"/>
								</g>
								<g class="st6">
									<polyline class="st7" points="358.2,254.6 362.4,251.6 366.6,248.6 370.9,245.6 375.1,242.6 379.4,239.5 383.6,236.5 
										387.9,233.5 392.1,230.5 396.3,227.5 400.6,224.5 404.8,221.5 409.1,218.5 413.3,215.5 417.6,212.5 421.8,209.5 
										426.1,206.5 430.3,203.5 434.5,200.5 438.8,197.5 443,194.5 447.3,191.5 451.5,188.4 455.8,185.4 460,182.4 464.2,179.4 
																			"/>
								</g>
								<g class="st6">
									<polyline class="st7" points="355.1,250.3 359.4,247.3 363.6,244.3 367.9,241.3 372.1,238.3 376.4,235.3 380.6,232.3 
										384.9,229.3 389.1,226.3 393.3,223.3 397.6,220.3 401.8,217.3 406.1,214.3 410.3,211.3 414.6,208.2 418.8,205.2 423,202.2 
										427.3,199.2 431.5,196.2 435.8,193.2 440,190.2 444.3,187.2 448.5,184.2 452.8,181.2 457,178.2 461.2,175.2 									"/>
								</g>
								<g class="st6">
									<polyline class="st7" points="352.1,246.1 356.4,243.1 360.6,240.1 364.9,237.1 369.1,234.1 373.4,231.1 377.6,228.1 
										381.8,225 386.1,222 390.3,219 394.6,216 398.8,213 403.1,210 407.3,207 411.6,204 415.8,201 420,198 424.3,195 428.5,192 
										432.8,189 437,186 441.3,183 445.5,180 449.7,177 454,173.9 458.2,170.9 									"/>
								</g>
								<g class="st6">
									<polyline class="st7" points="349.1,241.8 353.4,238.8 357.6,235.8 361.9,232.8 366.1,229.8 370.4,226.8 374.6,223.8 
										378.8,220.8 383.1,217.8 387.3,214.8 391.6,211.8 395.8,208.8 400.1,205.8 404.3,202.8 408.5,199.8 412.8,196.8 417,193.8 
										421.3,190.7 425.5,187.7 429.8,184.7 434,181.7 438.3,178.7 442.5,175.7 446.7,172.7 451,169.7 455.2,166.7 									"/>
								</g>
								<g class="st6">
									<polyline class="st7" points="346.1,237.6 350.4,234.6 354.6,231.6 358.9,228.6 363.1,225.6 367.3,222.6 371.6,219.6 
										375.8,216.6 380.1,213.6 384.3,210.5 388.6,207.5 392.8,204.5 397.1,201.5 401.3,198.5 405.5,195.5 409.8,192.5 414,189.5 
										418.3,186.5 422.5,183.5 426.8,180.5 431,177.5 435.2,174.5 439.5,171.5 443.7,168.5 448,165.5 452.2,162.5 									"/>
								</g>
								<g class="st6">
									<polyline class="st7" points="343.1,233.4 347.4,230.3 351.6,227.3 355.9,224.3 360.1,221.3 364.3,218.3 368.6,215.3 
										372.8,212.3 377.1,209.3 381.3,206.3 385.6,203.3 389.8,200.3 394,197.3 398.3,194.3 402.5,191.3 406.8,188.3 411,185.3 
										415.3,182.3 419.5,179.3 423.8,176.2 428,173.2 432.2,170.2 436.5,167.2 440.7,164.2 445,161.2 449.2,158.2 									"/>
								</g>
								<g class="st6">
									<polyline class="st7" points="340.1,229.1 344.4,226.1 348.6,223.1 352.8,220.1 357.1,217.1 361.3,214.1 365.6,211.1 
										369.8,208.1 374.1,205.1 378.3,202.1 382.6,199.1 386.8,196 391,193 395.3,190 399.5,187 403.8,184 408,181 412.3,178 
										416.5,175 420.7,172 425,169 429.2,166 433.5,163 437.7,160 442,157 446.2,154 									"/>
								</g>
								<g class="st6">
									<polyline class="st7" points="337.1,224.9 341.4,221.9 345.6,218.9 349.8,215.9 354.1,212.8 358.3,209.8 362.6,206.8 
										366.8,203.8 371.1,200.8 375.3,197.8 379.5,194.8 383.8,191.8 388,188.8 392.3,185.8 396.5,182.8 400.8,179.8 405,176.8 
										409.3,173.8 413.5,170.8 417.7,167.8 422,164.8 426.2,161.7 430.5,158.7 434.7,155.7 439,152.7 443.2,149.7 									"/>
								</g>
								<g class="st6">
									<polyline class="st7" points="334.1,220.6 338.3,217.6 342.6,214.6 346.8,211.6 351.1,208.6 355.3,205.6 359.6,202.6 
										363.8,199.6 368.1,196.6 372.3,193.6 376.5,190.6 380.8,187.6 385,184.6 389.3,181.5 393.5,178.5 397.8,175.5 402,172.5 
										406.3,169.5 410.5,166.5 414.7,163.5 419,160.5 423.2,157.5 427.5,154.5 431.7,151.5 436,148.5 440.2,145.5 									"/>
								</g>
								<g class="st6">
									<polyline class="st7" points="331.1,216.4 335.3,213.4 339.6,210.4 343.8,207.4 348.1,204.4 352.3,201.4 356.6,198.3 
										360.8,195.3 365,192.3 369.3,189.3 373.5,186.3 377.8,183.3 382,180.3 386.3,177.3 390.5,174.3 394.8,171.3 399,168.3 
										403.2,165.3 407.5,162.3 411.7,159.3 416,156.3 420.2,153.3 424.5,150.3 428.7,147.2 433,144.2 437.2,141.2 									"/>
								</g>
								<g class="st6">
									<polyline class="st7" points="328.1,212.1 332.3,209.1 336.6,206.1 340.8,203.1 345.1,200.1 349.3,197.1 353.6,194.1 
										357.8,191.1 362,188.1 366.3,185.1 370.5,182.1 374.8,179.1 379,176.1 383.3,173.1 387.5,170.1 391.8,167 396,164 
										400.2,161 404.5,158 408.7,155 413,152 417.2,149 421.5,146 425.7,143 429.9,140 434.2,137 									"/>
								</g>
								<g class="st6">
									<polyline class="st7" points="325.1,207.9 329.3,204.9 333.6,201.9 337.8,198.9 342.1,195.9 346.3,192.9 350.5,189.9 
										354.8,186.9 359,183.8 363.3,180.8 367.5,177.8 371.8,174.8 376,171.8 380.3,168.8 384.5,165.8 388.7,162.8 393,159.8 
										397.2,156.8 401.5,153.8 405.7,150.8 410,147.8 414.2,144.8 418.5,141.8 422.7,138.8 426.9,135.8 431.2,132.7 									"/>
								</g>
								<g class="st6">
									<polyline class="st7" points="322.1,203.6 326.3,200.6 330.6,197.6 334.8,194.6 339.1,191.6 343.3,188.6 347.5,185.6 
										351.8,182.6 356,179.6 360.3,176.6 364.5,173.6 368.8,170.6 373,167.6 377.3,164.6 381.5,161.6 385.7,158.6 390,155.6 
										394.2,152.5 398.5,149.5 402.7,146.5 407,143.5 411.2,140.5 415.4,137.5 419.7,134.5 423.9,131.5 428.2,128.5 									"/>
								</g>
								<g class="st6">
									<polyline class="st7" points="319.1,199.4 323.3,196.4 327.6,193.4 331.8,190.4 336.1,187.4 340.3,184.4 344.5,181.4 
										348.8,178.4 353,175.4 357.3,172.4 361.5,169.3 365.8,166.3 370,163.3 374.2,160.3 378.5,157.3 382.7,154.3 387,151.3 
										391.2,148.3 395.5,145.3 399.7,142.3 404,139.3 408.2,136.3 412.4,133.3 416.7,130.3 420.9,127.3 425.2,124.3 									"/>
								</g>
								<g class="st6">
									<polyline class="st7" points="316.1,195.2 320.3,192.2 324.6,189.1 328.8,186.1 333,183.1 337.3,180.1 341.5,177.1 
										345.8,174.1 350,171.1 354.3,168.1 358.5,165.1 362.8,162.1 367,159.1 371.2,156.1 375.5,153.1 379.7,150.1 384,147.1 
										388.2,144.1 392.5,141.1 396.7,138.1 400.9,135 405.2,132 409.4,129 413.7,126 417.9,123 422.2,120 									"/>
								</g>
								<g class="st6">
									<polyline class="st7" points="313.1,190.9 317.3,187.9 321.6,184.9 325.8,181.9 330,178.9 334.3,175.9 338.5,172.9 
										342.8,169.9 347,166.9 351.3,163.9 355.5,160.9 359.7,157.9 364,154.8 368.2,151.8 372.5,148.8 376.7,145.8 381,142.8 
										385.2,139.8 389.5,136.8 393.7,133.8 397.9,130.8 402.2,127.8 406.4,124.8 410.7,121.8 414.9,118.8 419.2,115.8 									
										"/>
								</g>
								<g class="st6">
									<polyline class="st7" points="310.1,186.7 314.3,183.7 318.5,180.7 322.8,177.7 327,174.6 331.3,171.6 335.5,168.6 
										339.8,165.6 344,162.6 348.3,159.6 352.5,156.6 356.7,153.6 361,150.6 365.2,147.6 369.5,144.6 373.7,141.6 378,138.6 
										382.2,135.6 386.4,132.6 390.7,129.6 394.9,126.6 399.2,123.6 403.4,120.5 407.7,117.5 411.9,114.5 416.2,111.5 									
										"/>
								</g>
								<g class="st6">
									<polyline class="st7" points="307.1,182.4 311.3,179.4 315.5,176.4 319.8,173.4 324,170.4 328.3,167.4 332.5,164.4 
										336.8,161.4 341,158.4 345.2,155.4 349.5,152.4 353.7,149.4 358,146.4 362.2,143.4 366.5,140.3 370.7,137.3 375,134.3 
										379.2,131.3 383.4,128.3 387.7,125.3 391.9,122.3 396.2,119.3 400.4,116.3 404.7,113.3 408.9,110.3 413.1,107.3 									
										"/>
								</g>
							</g>
							<g>
								<g>
									<polyline class="st7" points="307.1,182.4 310.1,186.7 313.1,190.9 316.1,195.2 319.1,199.4 322.1,203.6 325.1,207.9 
										328.1,212.1 331.1,216.4 334.1,220.6 337.1,224.9 340.1,229.1 343.1,233.4 346.1,237.6 349.1,241.8 352.1,246.1 
										355.1,250.3 358.2,254.6 361.2,258.8 364.2,263.1 367.2,267.3 370.2,271.6 373.2,275.8 376.2,280 379.2,284.3 382.2,288.5 
																			"/>
								</g>
								<g>
									<polyline class="st7" points="311.3,179.4 314.3,183.7 317.3,187.9 320.3,192.2 323.3,196.4 326.3,200.6 329.3,204.9 
										332.3,209.1 335.3,213.4 338.3,217.6 341.4,221.9 344.4,226.1 347.4,230.3 350.4,234.6 353.4,238.8 356.4,243.1 
										359.4,247.3 362.4,251.6 365.4,255.8 368.4,260.1 371.4,264.3 374.4,268.5 377.4,272.8 380.4,277 383.4,281.3 386.4,285.5 
																			"/>
								</g>
								<g>
									<polyline class="st7" points="315.5,176.4 318.5,180.7 321.6,184.9 324.6,189.1 327.6,193.4 330.6,197.6 333.6,201.9 
										336.6,206.1 339.6,210.4 342.6,214.6 345.6,218.9 348.6,223.1 351.6,227.3 354.6,231.6 357.6,235.8 360.6,240.1 
										363.6,244.3 366.6,248.6 369.6,252.8 372.6,257.1 375.7,261.3 378.7,265.5 381.7,269.8 384.7,274 387.7,278.3 390.7,282.5 
																			"/>
								</g>
								<g>
									<polyline class="st7" points="319.8,173.4 322.8,177.7 325.8,181.9 328.8,186.1 331.8,190.4 334.8,194.6 337.8,198.9 
										340.8,203.1 343.8,207.4 346.8,211.6 349.8,215.9 352.8,220.1 355.9,224.3 358.9,228.6 361.9,232.8 364.9,237.1 
										367.9,241.3 370.9,245.6 373.9,249.8 376.9,254 379.9,258.3 382.9,262.5 385.9,266.8 388.9,271 391.9,275.3 394.9,279.5 
																			"/>
								</g>
								<g>
									<polyline class="st7" points="324,170.4 327,174.6 330,178.9 333,183.1 336.1,187.4 339.1,191.6 342.1,195.9 345.1,200.1 
										348.1,204.4 351.1,208.6 354.1,212.8 357.1,217.1 360.1,221.3 363.1,225.6 366.1,229.8 369.1,234.1 372.1,238.3 
										375.1,242.6 378.1,246.8 381.1,251 384.1,255.3 387.1,259.5 390.2,263.8 393.2,268 396.2,272.3 399.2,276.5 									"/>
								</g>
								<g>
									<polyline class="st7" points="328.3,167.4 331.3,171.6 334.3,175.9 337.3,180.1 340.3,184.4 343.3,188.6 346.3,192.9 
										349.3,197.1 352.3,201.4 355.3,205.6 358.3,209.8 361.3,214.1 364.3,218.3 367.3,222.6 370.4,226.8 373.4,231.1 
										376.4,235.3 379.4,239.5 382.4,243.8 385.4,248 388.4,252.3 391.4,256.5 394.4,260.8 397.4,265 400.4,269.3 403.4,273.5 
																			"/>
								</g>
								<g>
									<polyline class="st7" points="332.5,164.4 335.5,168.6 338.5,172.9 341.5,177.1 344.5,181.4 347.5,185.6 350.5,189.9 
										353.6,194.1 356.6,198.3 359.6,202.6 362.6,206.8 365.6,211.1 368.6,215.3 371.6,219.6 374.6,223.8 377.6,228.1 
										380.6,232.3 383.6,236.5 386.6,240.8 389.6,245 392.6,249.3 395.6,253.5 398.6,257.8 401.6,262 404.7,266.2 407.7,270.5 
																			"/>
								</g>
								<g>
									<polyline class="st7" points="336.8,161.4 339.8,165.6 342.8,169.9 345.8,174.1 348.8,178.4 351.8,182.6 354.8,186.9 
										357.8,191.1 360.8,195.3 363.8,199.6 366.8,203.8 369.8,208.1 372.8,212.3 375.8,216.6 378.8,220.8 381.8,225 384.9,229.3 
										387.9,233.5 390.9,237.8 393.9,242 396.9,246.3 399.9,250.5 402.9,254.8 405.9,259 408.9,263.2 411.9,267.5 									"/>
								</g>
								<g>
									<polyline class="st7" points="341,158.4 344,162.6 347,166.9 350,171.1 353,175.4 356,179.6 359,183.8 362,188.1 
										365,192.3 368.1,196.6 371.1,200.8 374.1,205.1 377.1,209.3 380.1,213.6 383.1,217.8 386.1,222 389.1,226.3 392.1,230.5 
										395.1,234.8 398.1,239 401.1,243.3 404.1,247.5 407.1,251.7 410.1,256 413.1,260.2 416.1,264.5 									"/>
								</g>
								<g>
									<polyline class="st7" points="345.2,155.4 348.3,159.6 351.3,163.9 354.3,168.1 357.3,172.4 360.3,176.6 363.3,180.8 
										366.3,185.1 369.3,189.3 372.3,193.6 375.3,197.8 378.3,202.1 381.3,206.3 384.3,210.5 387.3,214.8 390.3,219 393.3,223.3 
										396.3,227.5 399.4,231.8 402.4,236 405.4,240.3 408.4,244.5 411.4,248.7 414.4,253 417.4,257.2 420.4,261.5 									"/>
								</g>
								<g>
									<polyline class="st7" points="349.5,152.4 352.5,156.6 355.5,160.9 358.5,165.1 361.5,169.3 364.5,173.6 367.5,177.8 
										370.5,182.1 373.5,186.3 376.5,190.6 379.5,194.8 382.6,199.1 385.6,203.3 388.6,207.5 391.6,211.8 394.6,216 397.6,220.3 
										400.6,224.5 403.6,228.8 406.6,233 409.6,237.2 412.6,241.5 415.6,245.7 418.6,250 421.6,254.2 424.6,258.5 									"/>
								</g>
								<g>
									<polyline class="st7" points="353.7,149.4 356.7,153.6 359.7,157.9 362.8,162.1 365.8,166.3 368.8,170.6 371.8,174.8 
										374.8,179.1 377.8,183.3 380.8,187.6 383.8,191.8 386.8,196 389.8,200.3 392.8,204.5 395.8,208.8 398.8,213 401.8,217.3 
										404.8,221.5 407.8,225.8 410.8,230 413.9,234.2 416.9,238.5 419.9,242.7 422.9,247 425.9,251.2 428.9,255.5 									"/>
								</g>
								<g>
									<polyline class="st7" points="358,146.4 361,150.6 364,154.8 367,159.1 370,163.3 373,167.6 376,171.8 379,176.1 
										382,180.3 385,184.6 388,188.8 391,193 394,197.3 397.1,201.5 400.1,205.8 403.1,210 406.1,214.3 409.1,218.5 412.1,222.7 
										415.1,227 418.1,231.2 421.1,235.5 424.1,239.7 427.1,244 430.1,248.2 433.1,252.5 									"/>
								</g>
								<g>
									<polyline class="st7" points="362.2,143.4 365.2,147.6 368.2,151.8 371.2,156.1 374.2,160.3 377.3,164.6 380.3,168.8 
										383.3,173.1 386.3,177.3 389.3,181.5 392.3,185.8 395.3,190 398.3,194.3 401.3,198.5 404.3,202.8 407.3,207 410.3,211.3 
										413.3,215.5 416.3,219.7 419.3,224 422.3,228.2 425.3,232.5 428.3,236.7 431.4,241 434.4,245.2 437.4,249.5 									"/>
								</g>
								<g>
									<polyline class="st7" points="366.5,140.3 369.5,144.6 372.5,148.8 375.5,153.1 378.5,157.3 381.5,161.6 384.5,165.8 
										387.5,170.1 390.5,174.3 393.5,178.5 396.5,182.8 399.5,187 402.5,191.3 405.5,195.5 408.5,199.8 411.6,204 414.6,208.2 
										417.6,212.5 420.6,216.7 423.6,221 426.6,225.2 429.6,229.5 432.6,233.7 435.6,238 438.6,242.2 441.6,246.4 									"/>
								</g>
								<g>
									<polyline class="st7" points="370.7,137.3 373.7,141.6 376.7,145.8 379.7,150.1 382.7,154.3 385.7,158.6 388.7,162.8 
										391.8,167 394.8,171.3 397.8,175.5 400.8,179.8 403.8,184 406.8,188.3 409.8,192.5 412.8,196.8 415.8,201 418.8,205.2 
										421.8,209.5 424.8,213.7 427.8,218 430.8,222.2 433.8,226.5 436.8,230.7 439.8,235 442.8,239.2 445.9,243.4 									"/>
								</g>
								<g>
									<polyline class="st7" points="375,134.3 378,138.6 381,142.8 384,147.1 387,151.3 390,155.6 393,159.8 396,164 399,168.3 
										402,172.5 405,176.8 408,181 411,185.3 414,189.5 417,193.8 420,198 423,202.2 426.1,206.5 429.1,210.7 432.1,215 
										435.1,219.2 438.1,223.5 441.1,227.7 444.1,231.9 447.1,236.2 450.1,240.4 									"/>
								</g>
								<g>
									<polyline class="st7" points="379.2,131.3 382.2,135.6 385.2,139.8 388.2,144.1 391.2,148.3 394.2,152.5 397.2,156.8 
										400.2,161 403.2,165.3 406.3,169.5 409.3,173.8 412.3,178 415.3,182.3 418.3,186.5 421.3,190.7 424.3,195 427.3,199.2 
										430.3,203.5 433.3,207.7 436.3,212 439.3,216.2 442.3,220.5 445.3,224.7 448.3,228.9 451.3,233.2 454.3,237.4 									"/>
								</g>
								<g>
									<polyline class="st7" points="383.4,128.3 386.4,132.6 389.5,136.8 392.5,141.1 395.5,145.3 398.5,149.5 401.5,153.8 
										404.5,158 407.5,162.3 410.5,166.5 413.5,170.8 416.5,175 419.5,179.3 422.5,183.5 425.5,187.7 428.5,192 431.5,196.2 
										434.5,200.5 437.5,204.7 440.6,209 443.6,213.2 446.6,217.4 449.6,221.7 452.6,225.9 455.6,230.2 458.6,234.4 									"/>
								</g>
								<g>
									<polyline class="st7" points="387.7,125.3 390.7,129.6 393.7,133.8 396.7,138.1 399.7,142.3 402.7,146.5 405.7,150.8 
										408.7,155 411.7,159.3 414.7,163.5 417.7,167.8 420.7,172 423.8,176.2 426.8,180.5 429.8,184.7 432.8,189 435.8,193.2 
										438.8,197.5 441.8,201.7 444.8,206 447.8,210.2 450.8,214.4 453.8,218.7 456.8,222.9 459.8,227.2 462.8,231.4 									"/>
								</g>
								<g>
									<polyline class="st7" points="391.9,122.3 394.9,126.6 397.9,130.8 400.9,135 404,139.3 407,143.5 410,147.8 413,152 
										416,156.3 419,160.5 422,164.8 425,169 428,173.2 431,177.5 434,181.7 437,186 440,190.2 443,194.5 446,198.7 449,202.9 
										452,207.2 455.1,211.4 458.1,215.7 461.1,219.9 464.1,224.2 467.1,228.4 									"/>
								</g>
								<g>
									<polyline class="st7" points="396.2,119.3 399.2,123.6 402.2,127.8 405.2,132 408.2,136.3 411.2,140.5 414.2,144.8 
										417.2,149 420.2,153.3 423.2,157.5 426.2,161.7 429.2,166 432.2,170.2 435.2,174.5 438.3,178.7 441.3,183 444.3,187.2 
										447.3,191.5 450.3,195.7 453.3,199.9 456.3,204.2 459.3,208.4 462.3,212.7 465.3,216.9 468.3,221.2 471.3,225.4 									
										"/>
								</g>
								<g>
									<polyline class="st7" points="400.4,116.3 403.4,120.5 406.4,124.8 409.4,129 412.4,133.3 415.4,137.5 418.5,141.8 
										421.5,146 424.5,150.3 427.5,154.5 430.5,158.7 433.5,163 436.5,167.2 439.5,171.5 442.5,175.7 445.5,180 448.5,184.2 
										451.5,188.4 454.5,192.7 457.5,196.9 460.5,201.2 463.5,205.4 466.5,209.7 469.6,213.9 472.6,218.2 475.6,222.4 									
										"/>
								</g>
								<g>
									<polyline class="st7" points="404.7,113.3 407.7,117.5 410.7,121.8 413.7,126 416.7,130.3 419.7,134.5 422.7,138.8 
										425.7,143 428.7,147.2 431.7,151.5 434.7,155.7 437.7,160 440.7,164.2 443.7,168.5 446.7,172.7 449.7,177 452.8,181.2 
										455.8,185.4 458.8,189.7 461.8,193.9 464.8,198.2 467.8,202.4 470.8,206.7 473.8,210.9 476.8,215.1 479.8,219.4 									
										"/>
								</g>
								<g>
									<polyline class="st7" points="408.9,110.3 411.9,114.5 414.9,118.8 417.9,123 420.9,127.3 423.9,131.5 426.9,135.8 
										429.9,140 433,144.2 436,148.5 439,152.7 442,157 445,161.2 448,165.5 451,169.7 454,173.9 457,178.2 460,182.4 463,186.7 
										466,190.9 469,195.2 472,199.4 475,203.7 478,207.9 481,212.1 484.1,216.4 									"/>
								</g>
								<g>
									<polyline class="st7" points="413.1,107.3 416.2,111.5 419.2,115.8 422.2,120 425.2,124.3 428.2,128.5 431.2,132.7 
										434.2,137 437.2,141.2 440.2,145.5 443.2,149.7 446.2,154 449.2,158.2 452.2,162.5 455.2,166.7 458.2,170.9 461.2,175.2 
										464.2,179.4 467.3,183.7 470.3,187.9 473.3,192.2 476.3,196.4 479.3,200.6 482.3,204.9 485.3,209.1 488.3,213.4 									
										"/>
								</g>
							</g>
						</g>
					</g>
				</g>
			</g>
		</g>
	</g>
	<g id="_x3C_extrapath_x3E_">
		<path class="st11" d="M471.3,162.2c-13.7-68-24-144.3-26.4-162.2h-18.2c1.6,12.4,12.4,93.6,27.2,165.7
			c15,74.4,29.4,169.3,27.9,213.7v0.4c0.2,35.1-5.6,80.4-10.2,116.7c-0.4,3.2-0.8,6.2-1.2,9.2l-38.1-3.5l-0.7-250.1l-2.7-118.3
			c0.2-2.2,0.8-15.8-10.9-29.4l-11.9-13.5c-0.3-0.3-7-7.9-15.4-11.6c-6.8-3-15.5-10.1-16.6-10.9c-0.5-0.5-2.5-2.4-5.7-4.8
			c-2.4-1.8-3.2-4.9-1.9-7.6l25.6-56h-9.3l-25.5,56.7c-3.2-1.6-6.7-3.1-10.5-4.3c-6.2-2-13.4-2.8-22.5-2.6c-8.3,0.2-22,0.1-37.8,0
			c-39.6-0.3-93.7-0.6-134.4,2.7c-2.5-0.1-19,0.2-28.5,18.2c-7.8,14.7-9.4,21.2-9.7,23.5L98.6,104c-1.8,1.2-3.4,2.9-4.4,4.9l-7,13.4
			c-1.4,2.6-2.2,5.5-2.6,8.4L83,144.1c-0.3,2.6-2.1,4.8-4.6,5.6l-15.9,5c-2.8,0.9-5.9-0.1-7.6-2.6l-8.5-12.3L21.1,98.6
			c-2.3-3.9-4.3-8-5.9-12.2L0,46.4v13.3l12.2,31.2c1.9,4.8,4.1,9.4,6.8,13.7L43.1,144l0.1-0.1l7.5,11c2.3,3.2,5.9,5.1,9.7,5.1
			c1.2,0,2.4-0.2,3.6-0.6l15.9-5c4.4-1.4,7.6-5.3,8.1-9.8l1.6-13.3c0.3-2.3,1-4.6,2.1-6.7l7-13.4c0.6-1.2,1.6-2.3,2.7-3l12.3-7.9
			l-1.9,76l-7.1,92v0.3l9.5,75.9l20.5,76.4l0.1,0.3c0.1,0.2,11,22.9,26.4,45.2l0.9,1.3c3.2,4.7,6,8.7,10,13.4l0.9,1.1L351.1,504
			l1.7,18.9c0.7,7.3,3.9,14.2,9.1,19.5l6.9,6.8h10l-12-11.7c-4-4.1-6.5-9.5-7-15.2l-1.5-17.5l26.4,3.2l43.9,0.8l40.9,3.8
			c0,0-3.2,26.5-3.9,36.6v0.1h18l0,0c0.9-13,3.2-30.6,5.7-50.5c4.6-36.8,10.5-82.6,10.3-118.9C501.1,334,486.5,237.5,471.3,162.2z
			 M424.5,248.8l-60.9,0.8l2.2-97c0.2-8.6,7.4-15.5,16.1-15.5h0.2l39.9,0.2L424.5,248.8z M368.9,256.5v45.8h-7.6l0.1-6.8l0.9-38.9
			l6.5-0.1H368.9z M250,192.3l82.7,1v-5l-82.6-1l1.6-125.1l0.1-5.5c12.3,0,23.8,0.1,34.5,0.2c16.6,0.1,29.7,0.2,38.1,0
			s14.8,0.5,20.3,2.2c14.1,4.4,24.4,14.4,24.5,14.5l0.2,0.2c0.4,0.3,10.2,8.5,18.3,12c7,3,12.9,9.7,13,9.8l11.9,13.5
			c7.3,8.6,8.9,17,9.2,21.3l-39.8-0.2h-0.2c-12.5,0-22.9,10-23.1,22.3l-0.5,22.8l-0.7,30l-1,44.3l-107.2-2.5L250,192.3z
			 M241.3,483.5l-64.7-7.9c-3.3-4-5.8-7.7-8.7-11.8l-0.6-0.8l1.9-4c0.8-1.6,2.4-2.6,4.1-2.6H232c1.2,0.1,9.5,1.2,9.5,10.7
			L241.3,483.5z M245.5,150.6l-0.3,27.3H118.7l-0.4,5h126.8l-3.4,268.4l-0.1,4.1c-3-2.8-6.8-4-9.4-4.1h-59c-3.6,0-6.9,2.1-8.6,5.4
			l-0.7,1.4c-12.6-19-21.6-37.2-22.8-39.6l-20.2-75l-9.3-74.9l6.6-85.6l0.2-2.6l0.2-2.4l0.1-1.1l0.6-26.2v-2.6l0.1-2.4l1.2-50.4
			c0.1-0.5,0.9-6.1,9-21.3c8-15,21.6-14.5,22.2-14.5h0.4c28-2.3,62.9-2.8,94.6-2.8l-0.1,5.6l-1.1,83.3h-126l-0.2,5L245.5,150.6
			L245.5,150.6z M354.2,398.6l-0.4,16.7l-0.2,9.4l-0.9,40.8h-0.1L352,497l-105.7-12.9l0.4-32.8l0.7-52.7l1.2-99.1l107.8,1
			L354.2,398.6z M248.7,294.5l0.5-40.4l108.1,2.5l-0.9,38.9L248.7,294.5z M385.3,501.1l-28.4-3.5l0.7-32.1h0.1l1.2-55.5l2.3-102.7
			h12.7v-50.9l50.6-0.7l0.7,246.1L385.3,501.1z"/>
		<path class="st7" d="M424.5,248.8l-60.9,0.8l2.2-97c0.2-8.6,7.4-15.5,16.1-15.5h0.2l39.9,0.2L424.5,248.8z"/>
	</g>
	<g id="_x3C_path_x3E_">
		<path class="st12" d="M428.8,505.4l48.2,4.5"/>
		<path class="st12" d="M385.1,504.6l43.7,0.8"/>
		<path class="st12" d="M354.1,500.8l31,3.8"/>
		<path class="st12" d="M243.9,487.4l110.2,13.5"/>
		<path class="st12" d="M174.7,478.9l69.2,8.5"/>
		<path class="st12" d="M163.4,463.6l11.3,15.3"/>
		<path class="st12" d="M155.5,451.2l7.9,12.3"/>
		<path class="st12" d="M147.5,438.8l8,12.5"/>
		<path class="st12" d="M137.9,419.7l9.6,19.1"/>
		<path class="st12" d="M117.6,344.1l20.3,75.6"/>
		<path class="st12" d="M115.8,329.7l1.8,14.4"/>
		<path class="st12" d="M115.8,329.7h9.8"/>
		<path class="st12" d="M112.2,300.6l3.6,29.1"/>
		<path class="st12" d="M112.2,300.6h13.4"/>
		<path class="st12" d="M108.2,268.6l4,32"/>
		<path class="st12" d="M112.4,213.8l-4.2,54.8"/>
		<path class="st12" d="M112.4,213.8h7.7"/>
		<path class="st12" d="M115.3,176.5l-2.9,37.3"/>
		<path class="st12" d="M117.3,95l-2,81.5"/>
		<path class="st12" d="M122.5,79.6L117.3,95"/>
		<path class="st12" d="M129.6,66.4l-7.1,13.2"/>
		<path class="st12" d="M140.2,58.7l-10.6,7.7"/>
		<path class="st12" d="M152.1,55.7l-11.9,3"/>
		<path class="st12" d="M215.6,53.3l-63.6,2.4"/>
		<path class="st12" d="M249.3,53.3h-33.7"/>
		<path class="st12" d="M248.8,89.5l0.5-36.2"/>
		<path class="st12" d="M298.8,89.5v-3.3"/>
		<path class="st12" d="M248.8,89.5h49.9"/>
		<path class="st12" d="M248.6,105.9l0.2-16.4"/>
		<path class="st12" d="M324.5,53.3l10.7,0.4"/>
		<path class="st12" d="M316.6,53.3h7.9"/>
		<path class="st12" d="M297.4,53.3h19.3"/>
		<path class="st12" d="M249.3,53.3h48.1"/>
		<path class="st12" d="M248.6,105.9h8.1"/>
		<path class="st12" d="M248.6,105.9h-8.7"/>
		<path class="st12" d="M248.4,120.8l0.2-14.9"/>
		<path class="st12" d="M213.3,120.8v2.5"/>
		<path class="st12" d="M248.4,120.8h-35.1"/>
		<path class="st12" d="M248.4,126.9l0.1-6.1"/>
		<path class="st12" d="M248.3,132.5l0.1-5.6"/>
		<path class="st12" d="M248.3,132.5h-11.5"/>
		<path class="st12" d="M248.1,148.1l0.2-15.6"/>
		<path class="st12" d="M247.9,163.9l0.2-15.8"/>
		<path class="st12" d="M247.9,163.9H243"/>
		<path class="st12" d="M247.7,180.4l0.2-16.5"/>
		<path class="st12" d="M247.5,189.8l0.1-9.4"/>
		<path class="st12" d="M247.2,216.9l0.4-27.2"/>
		<path class="st12" d="M246.8,245.8l0.4-28.8"/>
		<path class="st12" d="M246.8,245.8h-13.3"/>
		<path class="st12" d="M246.8,250.5l0.1-4.7"/>
		<path class="st12" d="M246.5,272.2l0.3-21.7"/>
		<path class="st12" d="M246.3,286.3l0.2-14.1"/>
		<path class="st12" d="M185.2,286.3v-2.1"/>
		<path class="st12" d="M246.3,286.3h-61.1"/>
		<path class="st12" d="M246.1,297l0.2-10.7"/>
		<path class="st12" d="M245.9,315.9l0.2-18.9"/>
		<path class="st12" d="M217.2,301.5h-2.7"/>
		<path class="st12" d="M217.2,315.9v-14.4"/>
		<path class="st12" d="M173.8,308h-2.2"/>
		<path class="st12" d="M173.8,315.9V308"/>
		<path class="st12" d="M217.2,315.9h-43.4"/>
		<path class="st12" d="M245.9,315.9h-28.7"/>
		<path class="st12" d="M245.7,329.7l0.2-13.8"/>
		<path class="st12" d="M245.7,329.7h-6.2"/>
		<path class="st12" d="M245.4,355.1l0.3-25.4"/>
		<path class="st12" d="M215.9,355.1v4.4"/>
		<path class="st12" d="M245.4,355.1h-29.5"/>
		<path class="st12" d="M245.2,372.6l0.2-17.5"/>
		<path class="st12" d="M245.2,372.6h-5.7"/>
		<path class="st12" d="M244.7,410.4l0.5-37.8"/>
		<path class="st12" d="M244.7,410.4h-5.2"/>
		<path class="st12" d="M244.6,419.6l0.1-9.2"/>
		<path class="st12" d="M244.6,419.6h8.2"/>
		<path class="st12" d="M244,462.3l0.5-42.8"/>
		<path class="st12" d="M243.7,487.5l0.3-25.2"/>
		<path class="st12" d="M351.3,58.2l-16.2-4.5"/>
		<path class="st12" d="M363.6,64.3l-11.9-6.5"/>
		<path class="st12" d="M379.3,76.6l-15.7-12.3"/>
		<path class="st12" d="M391.2,83.1l-11.9-6.6"/>
		<path class="st12" d="M399.7,90.2l-8.5-7.1"/>
		<path class="st12" d="M408.9,99.6l-9.2-9.4"/>
		<path class="st12" d="M417.4,109.1l-8.4-9.5"/>
		<path class="st12" d="M423.7,121.8l-6.3-12.7"/>
		<path class="st12" d="M425.4,133.8l-1.7-12"/>
		<path class="st12" d="M382.1,133.6l43.3,0.2"/>
		<path class="st12" d="M372.9,135.1l9.2-1.5"/>
		<path class="st12" d="M363.6,144.5l9.3-9.4"/>
		<path class="st12" d="M362.3,152.5l1.3-8"/>
		<path class="st12" d="M361.4,190.8l0.9-38.3"/>
		<path class="st12" d="M361.4,190.8h-7"/>
		<path class="st12" d="M360,253.2l1.4-62.4"/>
		<path class="st12" d="M428.1,252.2l-2.7-118.5"/>
		<path class="st12" d="M428.8,505.4l-0.7-253.2"/>
		<line class="st12" x1="355.5" y1="453.8" x2="354.4" y2="501"/>
		<line class="st12" x1="355.5" y1="453.8" x2="350" y2="453.8"/>
		<line class="st12" x1="356.2" y1="419.6" x2="355.5" y2="453.8"/>
		<line class="st12" x1="356.2" y1="419.6" x2="354.1" y2="419.6"/>
		<line class="st12" x1="358.8" y1="305.2" x2="356.2" y2="419.6"/>
		<line class="st12" x1="359" y1="298" x2="358.8" y2="305.2"/>
		<line class="st12" x1="360" y1="253.1" x2="359" y2="298"/>
		<line class="st12" x1="279.4" y1="251.3" x2="246.7" y2="250.5"/>
		<line class="st12" x1="360" y1="253.1" x2="279.4" y2="251.3"/>
		<line class="st12" x1="371.3" y1="253" x2="360" y2="253.1"/>
		<line class="st12" x1="428.1" y1="252.2" x2="371.3" y2="253"/>
		<line class="st12" x1="279.4" y1="190.2" x2="247.5" y2="189.8"/>
		<path class="st12" d="M279.4,251.3"/>
		<line class="st12" x1="279.4" y1="190.2" x2="279.4" y2="206.7"/>
		<line class="st12" x1="332.7" y1="190.8" x2="279.4" y2="190.2"/>
		<line class="st12" x1="140.7" y1="148.1" x2="116.6" y2="148.1"/>
		<line class="st12" x1="140.7" y1="148.1" x2="140.7" y2="143.6"/>
		<line class="st12" x1="248.1" y1="148.1" x2="140.7" y2="148.1"/>
		<line class="st12" x1="327.6" y1="297.7" x2="246.1" y2="297"/>
		<line class="st12" x1="327.6" y1="297.7" x2="327.6" y2="289"/>
		<line class="st12" x1="359" y1="298" x2="327.6" y2="297.7"/>
		<line class="st12" x1="158.2" y1="180.4" x2="114.9" y2="180.4"/>
		<line class="st12" x1="158.2" y1="180.4" x2="158.2" y2="173.8"/>
		<line class="st12" x1="248.1" y1="180.4" x2="158.2" y2="180.4"/>
		<line class="st12" x1="371.4" y1="278.2" x2="371.4" y2="253.1"/>
		<line class="st12" x1="371.4" y1="278.2" x2="374.5" y2="278.2"/>
		<line class="st12" x1="371.4" y1="305.2" x2="371.4" y2="278.2"/>
		<line class="st12" x1="359" y1="305.2" x2="371.4" y2="305.2"/>
		<path class="st12" d="M238.7,456.4l5.3,5.9"/>
		<path class="st12" d="M232.1,453.8l6.6,2.6"/>
		<path class="st12" d="M173.2,453.8h58.9"/>
		<path class="st12" d="M169.1,455.1l4.1-1.3"/>
		<path class="st12" d="M163.4,463.6l5.6-8.5"/>
		<line class="st12" x1="316.6" y1="53.3" x2="316.6" y2="43.2"/>
		<line class="st12" x1="297.4" y1="53.3" x2="297.4" y2="59.7"/>
		<line class="st12" x1="247.2" y1="216.9" x2="243" y2="216.9"/>
		<line class="st12" x1="246.5" y1="272.2" x2="254.5" y2="272.2"/>
		<line class="st12" x1="233.5" y1="272.2" x2="246.5" y2="272.2"/>
		<line class="st12" x1="298.8" y1="89.5" x2="298.8" y2="92.7"/>
		<line class="st12" x1="318.2" y1="126.9" x2="248.3" y2="126.9"/>
		<line class="st12" x1="318.2" y1="123.3" x2="318.2" y2="126.9"/>
		<line class="st12" x1="279.4" y1="240.7" x2="279.4" y2="251.3"/>
	</g>
	<g id="_x3C_buildings_x3E_">
		
			<rect id="b35" x="98.8" y="115" onclick="buildingClick('b35')" class="assigned" width="11.7" height="26.6"/>
		<polygon id="b34" onclick="buildingClick('b34')" class="assigned" points="
			125.9,91.9 240.1,92.1 239.8,118.7 125.7,118.5 		"/>
		
			<rect id="b33" x="256.7" y="92.7" onclick="buildingClick('b33')" class="assigned" width="95" height="30.6"/>
		<polygon id="b32" onclick="buildingClick('b32')" class="assigned" points="
			345.7,62.1 345.7,86.2 256.7,86.2 256.7,62.1 289.8,62.1 289.8,59.7 305.3,59.7 305.3,62.1 		"/>
		
			<rect id="b31" x="127.2" y="154" onclick="buildingClick('b31')" class="assigned" width="115.8" height="19.8"/>
		
			<rect id="b30" x="125.6" y="260.2" onclick="buildingClick('b30')" class="assigned" width="107.9" height="24"/>
		
			<rect id="b29" x="125.6" y="318.7" onclick="buildingClick('b29')" class="assigned" width="113.9" height="24.2"/>
		<polygon id="b28" onclick="buildingClick('b28')" class="assigned" points="
			243,203.3 243,232 120.1,232 120.1,195.9 141.8,195.9 141.8,203.3 156.7,203.3 156.7,199.1 147,199.1 147,186.2 175,186.2 
			175,203.3 		"/>
		
			<rect id="b27" x="174.7" y="430.3" onclick="buildingClick('b27')" class="assigned" width="21.2" height="14.1"/>
		<polygon id="b26" onclick="buildingClick('b26')" class="assigned" points="
			140,374.6 155.5,374.7 155.5,397.1 140,396.9 		"/>
		<polygon id="b25" onclick="buildingClick('b25')" class="assigned" points="
			146.8,405.1 166.2,405.1 166.2,425.2 153.4,425.2 153.5,416.2 146.8,416.2 		"/>
		
			<rect id="b24" x="125.6" y="288.4" onclick="buildingClick('b24')" class="assigned" width="46" height="26.2"/>
		
			<rect id="b23" x="182" y="290.5" onclick="buildingClick('b23')" class="assigned" width="32.5" height="22"/>
		<polygon id="b22" onclick="buildingClick('b22')" class="assigned" points="
			233.5,241.8 233.5,249.9 219.9,249.9 219.9,256.3 185.5,256.3 185.5,235.3 219.9,235.3 219.9,241.8 		"/>
		
			<rect id="b21" x="218.6" y="186.2" onclick="buildingClick('b21')" class="assigned" width="24.4" height="12.3"/>
		
			<rect id="b20" x="133.5" y="122.3" onclick="buildingClick('b20')" class="assigned" width="37.1" height="21.3"/>
		
			<rect id="b19" x="178.6" y="122.3" onclick="buildingClick('b19')" class="assigned" width="19.7" height="21.3"/>
		<polygon id="b18" onclick="buildingClick('B18A')" class="assigned" points="
			236.8,130.3 236.8,134.8 232.7,134.8 232.7,138.2 219.4,138.2 219.4,126.9 232.7,126.9 232.7,130.3 		"/>
		<polygon id="b18" onclick="buildingClick('b18')" class="assigned" points="
			215.3,123.3 215.3,138.2 206.6,138.2 206.6,126.9 211.2,126.9 211.2,123.3 		"/>
		
			<rect id="b17" x="210.9" y="63.5" onclick="buildingClick('b17')" class="assigned" width="23.1" height="23.1"/>
		<polygon id="b16" onclick="buildingClick('b16')" class="assigned" points="
			324.7,140.8 324.7,171.4 279.6,171.4 279.6,166.2 273.4,166.2 273.4,163.9 265.5,163.9 265.5,148.4 273.4,148.4 273.4,146 
			278.6,146 278.6,140.8 		"/>
		<polygon id="b15" onclick="buildingClick('b15')" class="assigned" points="
			354.1,415.3 354.1,424.7 346.5,424.7 346.5,436.6 337,436.6 337,431.4 252.8,431.4 252.8,408.3 337,408.3 337,403.9 346.5,403.9 
			346.5,415.3 		"/>
		<polygon id="b14" onclick="buildingClick('b14')" class="assigned" points="
			350.3,449.5 350.3,458.1 341.1,458.1 341.1,465.5 309.3,465.5 309.3,442.1 341.1,442.1 341.1,449.5 		"/>
		
			<rect id="b13" x="254.5" y="258.7" onclick="buildingClick('b13')" class="assigned" width="94.9" height="30.3"/>
		<polygon id="b12" onclick="buildingClick('b12')" class="assigned" points="
			302.7,207.6 302.7,239.8 285.7,239.8 285.7,240.7 274.5,240.7 274.5,206.7 285.7,206.7 285.7,207.6 		"/>
		
			<rect id="b11" x="284.3" y="17.7" onclick="buildingClick('b11')" class="assigned" width="66.9" height="25.5"/>
		<polygon id="b10" onclick="buildingClick('b10')" class="assigned" points="
			413.5,317 413.5,383 413.5,383 413.5,401.9 365.8,401.9 365.8,367.7 384.7,367.7 384.7,383 394.6,383 394.6,317 		"/>
		
			<rect id="b9" x="365.8" y="316.9" onclick="buildingClick('b9')" class="assigned" width="19" height="40.8"/>
		<polygon id="b8" onclick="buildingClick('b8')" class="assigned" points="
			146.3,73.7 146.3,87.3 138.2,87.3 138.2,73.7 140.1,73.7 140.1,68.7 143.5,68.7 143.5,73.7 		"/>
		<polygon id="b7" onclick="buildingClick('b7')" class="assigned" points="
			366.2,205.3 354.4,205.3 354.4,244.2 332.7,244.2 332.7,136.6 354.4,136.6 354.4,175.3 366.2,175.3 		"/>
		<polygon id="b6" onclick="buildingClick('b6')" class="assigned" points="
			415.9,259.2 415.9,297.3 375.7,297.3 375.7,285 366.6,285 366.6,271.8 375.7,271.8 375.7,259.2 		"/>
		
			<rect id="b5" x="178.7" y="348.4" onclick="buildingClick('b5')" class="assigned" width="6.7" height="6.7"/>
		<polygon id="b4" onclick="buildingClick('b4')" class="assigned" points="
			212.8,349.1 212.8,354.3 211.3,354.3 211.3,355.1 192.4,355.1 192.4,348.4 211.3,348.4 211.3,349.1 		"/>
		
			<rect id="b3" x="130.9" y="346.4" onclick="buildingClick('b3')" class="assigned" width="24.6" height="15.7"/>
		
			<rect id="b2" x="158.7" y="359.6" onclick="buildingClick('b2')" class="assigned" width="80.8" height="28.2"/>
		<polygon id="b1" onclick="buildingClick('b1')" class="assigned" points="
			239.5,398.6 239.5,447.8 218.3,447.8 218.3,430.2 199.1,430.2 199.1,398.6 		"/>
	</g>
	<g id="_x3C_entry_x3E_">
		<g>
			<rect x="443.4" y="515" class="st13" width="22.3" height="7.8"/>
		</g>
		<g>
			<g class="st14">
				<path class="st15" d="M446,519.8h1.7v1.2h-3v-4.6h3v1.2H446v0.5h1.5v1.2H446V519.8z"/>
				<path class="st15" d="M450.8,516.5h1.3v4.6h-1l-1.4-2.1v2.1h-1.3v-4.6h1l1.4,2.1V516.5z"/>
				<path class="st15" d="M456,516.5v1.3h-1.1v3.3h-1.3v-3.3h-1.1v-1.3H456z"/>
				<path class="st15" d="M458.7,521l-0.7-1.4h-0.3v1.4h-1.3v-4.6h1.8c0.5,0,0.9,0.1,1.2,0.4c0.3,0.3,0.5,0.7,0.5,1.2
					c0,0.3-0.1,0.5-0.2,0.7c-0.1,0.2-0.3,0.4-0.5,0.5l0.9,1.7H458.7z M457.7,517.7v0.9h0.5c0.1,0,0.3,0,0.3-0.1
					c0.1-0.1,0.1-0.2,0.1-0.3s0-0.2-0.1-0.3c-0.1-0.1-0.2-0.1-0.3-0.1H457.7z"/>
				<path class="st15" d="M464.4,516.5l-1.6,2.8v1.7h-1.3v-1.7l-1.6-2.8h1.5l0.8,1.6l0.8-1.6H464.4z"/>
			</g>
		</g>
	</g>
	<g id="_x3C_exit_x3E_">
		<g>
			<rect x="443.4" y="491.9" class="st16" width="22.3" height="7.8"/>
		</g>
		<g class="st14">
			<path class="st15" d="M449.6,496.8h1.7v1.2h-3v-4.6h3v1.2h-1.7v0.5h1.5v1.2h-1.5V496.8z"/>
			<path class="st15" d="M455.8,498h-1.5l-0.7-1.1L453,498h-1.5l1.4-2.3l-1.4-2.3h1.5l0.6,1.1l0.6-1.1h1.5l-1.4,2.3L455.8,498z"/>
			<path class="st15" d="M456.1,493.4h1.3v4.6h-1.3V493.4z"/>
			<path class="st15" d="M461.3,493.4v1.3h-1.1v3.3h-1.3v-3.3h-1.1v-1.3H461.3z"/>
		</g>
	</g>
	<g id="_x3C_exit_x3E__00000116956089610933111020000014060474117317168002_">
		<g>
			<rect x="86.1" y="82.4" class="st16" width="22.3" height="7.8"/>
		</g>
		<g class="st14">
			<path class="st15" d="M92.3,87.3H94v1.2h-3v-4.6h3v1.2h-1.7v0.5h1.5v1.2h-1.5V87.3z"/>
			<path class="st15" d="M98.4,88.5h-1.5l-0.7-1.1l-0.7,1.1h-1.5l1.4-2.3l-1.4-2.3h1.5l0.6,1.1l0.6-1.1h1.5L97,86.1L98.4,88.5z"/>
			<path class="st15" d="M98.7,83.9h1.3v4.6h-1.3V83.9z"/>
			<path class="st15" d="M103.9,83.9v1.3h-1.1v3.3h-1.3v-3.3h-1.1v-1.3H103.9z"/>
		</g>
	</g>
	<g id="_x3C_user_location_x3E_">
		<g>
			<path class="clicked" d="M163.2,117.2v-0.6c0-0.2,0-0.3-0.1-0.5c0-0.1-0.1-0.2-0.1-0.4c-0.1-0.3-0.2-0.7-0.4-1c0-0.1-0.1-0.2-0.1-0.4
				c-0.2-0.3-0.3-0.7-0.5-1c-0.1-0.1-0.1-0.2-0.2-0.4c-0.1-0.1-0.2-0.3-0.3-0.4c-0.1-0.2-0.2-0.3-0.4-0.5c-0.1-0.1-0.2-0.2-0.4-0.4
				c-0.2-0.2-0.5-0.5-0.8-0.7c-0.2-0.2-0.4-0.3-0.6-0.4s-0.4-0.3-0.6-0.4c-0.2-0.1-0.4-0.2-0.7-0.3c-0.2-0.1-0.5-0.2-0.7-0.3
				s-0.4-0.1-0.6-0.2c-0.1,0-0.2,0-0.3-0.1c-0.2-0.1-0.5-0.1-0.8-0.1H153c-0.2,0-0.5,0.1-0.8,0.1c-0.1,0-0.2,0-0.3,0.1
				c-0.2,0-0.4,0.1-0.6,0.2s-0.3,0.1-0.5,0.2c-0.1,0-0.1,0.1-0.2,0.1c-0.2,0.1-0.4,0.2-0.6,0.3c-0.2,0.1-0.4,0.2-0.6,0.4
				c-0.2,0.1-0.4,0.3-0.6,0.4c-0.6,0.5-1.1,1-1.5,1.5c-0.2,0.2-0.3,0.4-0.4,0.6c-0.1,0.2-0.3,0.4-0.4,0.6c-0.1,0.2-0.2,0.4-0.3,0.6
				c0,0.1-0.1,0.1-0.1,0.2c-0.1,0.2-0.1,0.3-0.2,0.5c-0.1,0.2-0.1,0.4-0.2,0.6c0,0.1-0.1,0.2-0.1,0.3c-0.1,0.2-0.1,0.5-0.1,0.8v2.6
				c0,0.2,0.1,0.5,0.1,0.8c0,0.1,0,0.2,0.1,0.3c0,0.2,0.1,0.4,0.2,0.6c0.1,0.2,0.2,0.5,0.3,0.7s0.2,0.4,0.3,0.7c0,0,0,0,0,0.1
				c0.1,0.2,0.2,0.4,0.3,0.6s0.3,0.4,0.5,0.6c0.1,0.1,0.1,0.2,0.2,0.2l6.8,8.7l6.9-8.8l0.1-0.1c0.1-0.2,0.3-0.3,0.4-0.5
				c0.2-0.2,0.3-0.5,0.5-0.8c0.1-0.2,0.2-0.4,0.3-0.5c0-0.1,0.1-0.2,0.1-0.3c0.1-0.2,0.1-0.4,0.2-0.6c0.1-0.2,0.1-0.4,0.2-0.6
				c0-0.1,0.1-0.2,0.1-0.3c0-0.2,0.1-0.3,0.1-0.5v-2C163.3,117.5,163.2,117.3,163.2,117.2z M157.4,119.8c0,0.1-0.1,0.1-0.1,0.2
				c-0.6,0.9-1.7,1.5-2.8,1.5c-1.7,0-3.2-1.3-3.5-3c0-0.2,0-0.4,0-0.5c0-0.9,0.4-1.8,1-2.4c0-0.1,0.1-0.1,0.2-0.2
				c0.6-0.6,1.4-0.9,2.4-0.9c1.9,0,3.5,1.5,3.5,3.5c0,0.2,0,0.4-0.1,0.6C157.8,119,157.6,119.4,157.4,119.8z"/>
			<g>
				<path class="st17" d="M157.8,118.1c0,1.9-1.5,3.5-3.5,3.5c-1.9,0-3.5-1.6-3.5-3.5s1.5-3.5,3.5-3.5S157.8,116.2,157.8,118.1z"/>
			</g>
		</g>
	</g>
</g>
<g id="_x3C_washroom-f_x3E_">
	<circle class="clicked" cx="371.3" cy="373.3" r="4"/>
	<path class="st15" d="M372.5,373.6h-0.1l-0.1-0.1l-0.3-0.9l-0.1-0.4h-0.1l0.1,0.4l0.3,1l0.1,0.3h-0.4v1.6c0,0.2-0.1,0.3-0.3,0.3
		c-0.1,0-0.1,0-0.2-0.1s-0.1-0.1-0.1-0.2v-1.6h-0.1v1.6c0,0.2-0.1,0.3-0.3,0.3c-0.1,0-0.1,0-0.2-0.1s-0.1-0.1-0.1-0.2v-1.6h-0.4
		l0.1-0.3l0.3-1l0.1-0.4h-0.1l-0.1,0.4l-0.3,0.9c0,0.1-0.1,0.1-0.2,0.1s-0.2-0.1-0.2-0.2c0,0,0,0,0-0.1l0.2-0.7l0.2-0.6v-0.1l0,0
		l0,0l0,0l0,0l0,0l0,0l0,0l0,0l0,0c0.1-0.1,0.3-0.2,0.5-0.2h0.6c0.2,0,0.3,0.1,0.5,0.2l0,0l0,0l0,0l0,0l0,0l0,0l0,0l0,0l0,0v0.1
		l0.2,0.6l0,0l0.2,0.7C372.7,373.5,372.6,373.6,372.5,373.6z M371.3,371.4c0.3,0,0.5-0.2,0.5-0.5s-0.2-0.5-0.5-0.5s-0.5,0.2-0.5,0.5
		S371.1,371.4,371.3,371.4z"/>
</g>
<g id="_x3C_wahroom-f_x3E_">
	<circle class="clicked" cx="210.9" cy="132.5" r="4"/>
	<path class="st15" d="M212.1,132.8H212l-0.1-0.1l-0.3-0.9l-0.1-0.4h-0.1l0.1,0.4l0.3,1l0.1,0.3h-0.4v1.6c0,0.2-0.1,0.3-0.3,0.3
		c-0.1,0-0.1,0-0.2-0.1c-0.1-0.1-0.1-0.1-0.1-0.2v-1.6h-0.1v1.6c0,0.2-0.1,0.3-0.3,0.3c-0.1,0-0.1,0-0.2-0.1
		c-0.1-0.1-0.1-0.1-0.1-0.2v-1.6H210l0.1-0.3l0.3-1l0.1-0.4h-0.1l-0.1,0.4l-0.3,0.9c0,0.1-0.1,0.1-0.2,0.1c-0.1,0-0.2-0.1-0.2-0.2
		c0,0,0,0,0-0.1l0.2-0.7l0.2-0.6v-0.1l0,0l0,0l0,0l0,0l0,0l0,0l0,0l0,0l0,0c0.1-0.1,0.3-0.2,0.5-0.2h0.6c0.2,0,0.3,0.1,0.5,0.2l0,0
		l0,0l0,0l0,0l0,0l0,0l0,0l0,0l0,0v0.1l0.2,0.6l0,0l0.2,0.7C212.4,132.7,212.3,132.8,212.1,132.8z M211,130.6c0.3,0,0.5-0.2,0.5-0.5
		s-0.2-0.5-0.5-0.5s-0.5,0.2-0.5,0.5S210.7,130.6,211,130.6z"/>
</g>
<g id="_x3C_washroom-m_x3E_">
	<circle class="clicked" cx="214.5" cy="245.8" r="4"/>
	<path class="st15" d="M215.6,244.7v1.4c0,0.1-0.1,0.2-0.2,0.2l0,0c-0.1,0-0.2-0.1-0.2-0.2v-1.4h-0.1v3.3c0,0.2-0.1,0.3-0.3,0.3l0,0
		c-0.2,0-0.3-0.1-0.3-0.3v-1.6h-0.1v1.6c0,0.2-0.1,0.3-0.3,0.3l0,0c-0.2,0-0.3-0.1-0.3-0.3v-3.3h-0.1v1.4c0,0.1-0.1,0.2-0.2,0.2l0,0
		c-0.1,0-0.2-0.1-0.2-0.2v-1.4c0-0.4,0.3-0.7,0.7-0.7h0.9C215.3,244,215.6,244.3,215.6,244.7z M214.5,243.9c0.3,0,0.5-0.2,0.5-0.5
		s-0.2-0.5-0.5-0.5s-0.5,0.2-0.5,0.5S214.2,243.9,214.5,243.9z"/>
</g>
<g id="_x3C_washroom-m_x3E__00000169545089474147052140000012696100698050610345_">
	<circle class="clicked" cx="226.4" cy="132.5" r="4"/>
	<path class="st15" d="M227.6,131.4v1.4c0,0.1-0.1,0.2-0.2,0.2l0,0c-0.1,0-0.2-0.1-0.2-0.2v-1.4H227v3.3c0,0.2-0.1,0.3-0.3,0.3l0,0
		c-0.2,0-0.3-0.1-0.3-0.3v-1.6h-0.1v1.6c0,0.2-0.1,0.3-0.3,0.3l0,0c-0.2,0-0.3-0.1-0.3-0.3v-3.3h-0.1v1.4c0,0.1-0.1,0.2-0.2,0.2l0,0
		c-0.1,0-0.2-0.1-0.2-0.2v-1.4c0-0.4,0.3-0.7,0.7-0.7h0.9C227.3,130.7,227.6,131,227.6,131.4z M226.4,130.6c0.3,0,0.5-0.2,0.5-0.5
		s-0.2-0.5-0.5-0.5s-0.5,0.2-0.5,0.5S226.2,130.6,226.4,130.6z"/>
</g>
<g id="_x3C_washroom_x3E__00000085226864546833890150000012285265157222688907_">
	<path class="clicked" d="M239.8,511.1h14c1.5,0,2.7,1.2,2.7,2.7v14c0,1.5-1.2,2.7-2.7,2.7h-14c-1.5,0-2.7-1.2-2.7-2.7v-14
		c0-1.1,0.6-2,1.6-2.4C239,511.2,239.4,511.1,239.8,511.1z"/>
	<g>
		<path class="st15" d="M253.8,518.7v3.7c0,0.3-0.3,0.6-0.6,0.6l0,0c-0.3,0-0.6-0.3-0.6-0.6v-3.6h-0.2v8.4c0,0.4-0.3,0.7-0.7,0.7
			l0,0c-0.4,0-0.7-0.3-0.7-0.7V523h-0.2v4.3c0,0.4-0.3,0.7-0.7,0.7l0,0c-0.4,0-0.7-0.3-0.7-0.7v-8.4h-0.2v3.6c0,0.3-0.3,0.6-0.6,0.6
			l0,0c-0.3,0-0.6-0.3-0.6-0.6v-3.7c0-1,0.8-1.8,1.8-1.8h2.4C253,517,253.8,517.8,253.8,518.7z"/>
		<circle class="st15" cx="250.9" cy="515.4" r="1.3"/>
		<path class="st15" d="M245.1,522.4c-0.1,0-0.2,0-0.3-0.1s-0.2-0.2-0.2-0.3l-0.7-2.2l-0.3-1.1h-0.3l0.3,1.1l0.8,2.6l0.3,0.8h-1v4
			c0,0.4-0.3,0.7-0.7,0.7c-0.2,0-0.4-0.1-0.5-0.2c-0.1-0.1-0.2-0.3-0.2-0.5v-4H242v4c0,0.4-0.3,0.7-0.7,0.7c-0.2,0-0.4-0.1-0.5-0.2
			c-0.1-0.1-0.2-0.3-0.2-0.5v-4h-1l0.3-0.8l0.8-2.6l0.3-1.1h-0.3l-0.3,1.1l-0.7,2.2c-0.1,0.2-0.3,0.4-0.5,0.4
			c-0.3,0-0.5-0.3-0.5-0.5c0-0.1,0-0.1,0-0.2l0.6-1.9l0.5-1.5c0-0.1,0.1-0.2,0.1-0.3c0,0,0-0.1,0.1-0.1c0,0,0,0,0-0.1
			c0,0,0-0.1,0.1-0.1l0,0c0,0,0-0.1,0.1-0.1l0,0c0,0,0-0.1,0.1-0.1l0,0c0,0,0-0.1,0.1-0.1c0.3-0.3,0.8-0.5,1.2-0.5h1.5
			c0.5,0,0.9,0.2,1.2,0.5c0,0,0.1,0,0.1,0.1l0,0c0,0,0,0,0.1,0.1l0,0c0,0,0,0.1,0.1,0.1l0,0c0,0,0,0.1,0.1,0.1c0,0,0,0,0,0.1
			c0,0,0,0.1,0.1,0.1c0,0.1,0.1,0.2,0.1,0.3l0.5,1.5l0,0l0.6,1.9C245.8,522,245.5,522.4,245.1,522.4z"/>
		<circle class="st15" cx="242.1" cy="515.4" r="1.3"/>
	</g>
	<rect x="246.5" y="513.5" class="st15" width="0.5" height="14.5"/>
</g>
<g id="_x3C_washroom_x3E_">
	<path class="clicked" d="M101,29.2h14.3c1.5,0,2.8,1.2,2.8,2.8v14.3c0,1.5-1.2,2.8-2.8,2.8H101c-1.5,0-2.8-1.2-2.8-2.8V32
		c0-1.1,0.7-2.1,1.6-2.5C100.2,29.3,100.6,29.2,101,29.2z"/>
	<g>
		<path class="st15" d="M115.3,37.1v3.7c0,0.3-0.3,0.6-0.6,0.6l0,0c-0.3,0-0.6-0.3-0.6-0.6v-3.6h-0.2v8.4c0,0.4-0.3,0.7-0.7,0.7l0,0
			c-0.4,0-0.7-0.3-0.7-0.7v-4.3h-0.2v4.3c0,0.4-0.3,0.7-0.7,0.7l0,0c-0.4,0-0.7-0.3-0.7-0.7v-8.4h-0.2v3.6c0,0.3-0.3,0.6-0.6,0.6
			l0,0c-0.3,0-0.6-0.3-0.6-0.6v-3.7c0-1,0.8-1.8,1.8-1.8h2.4C114.5,35.4,115.3,36.1,115.3,37.1z"/>
		<circle class="st15" cx="112.3" cy="33.8" r="1.3"/>
		<path class="st15" d="M106.6,40.8c-0.1,0-0.2,0-0.3-0.1c-0.1-0.1-0.2-0.2-0.2-0.3l-0.7-2.2l-0.3-1.1h-0.3l0.3,1.1l0.8,2.6l0.3,0.8
			h-1v4c0,0.4-0.3,0.7-0.7,0.7c-0.2,0-0.4-0.1-0.5-0.2c-0.1-0.1-0.2-0.3-0.2-0.5v-4h-0.2v4c0,0.4-0.3,0.7-0.7,0.7
			c-0.2,0-0.4-0.1-0.5-0.2c-0.1-0.1-0.2-0.3-0.2-0.5v-4h-1l0.3-0.8l0.8-2.6l0.3-1.1h-0.3l-0.3,1.1l-0.7,2.2
			c-0.1,0.2-0.3,0.4-0.5,0.4c-0.3,0-0.5-0.3-0.5-0.5c0-0.1,0-0.1,0-0.2l0.6-1.9l0.5-1.5c0-0.1,0.1-0.2,0.1-0.3c0,0,0-0.1,0.1-0.1
			c0,0,0,0,0-0.1c0,0,0-0.1,0.1-0.1l0,0c0,0,0-0.1,0.1-0.1l0,0c0,0,0-0.1,0.1-0.1l0,0c0,0,0-0.1,0.1-0.1c0.3-0.3,0.8-0.5,1.2-0.5
			h1.5c0.5,0,0.9,0.2,1.2,0.5c0,0,0.1,0,0.1,0.1l0,0c0,0,0,0,0.1,0.1l0,0c0,0,0,0.1,0.1,0.1l0,0c0,0,0,0.1,0.1,0.1c0,0,0,0,0,0.1
			c0,0,0,0.1,0.1,0.1c0,0.1,0.1,0.2,0.1,0.3l0.5,1.5l0,0l0.6,1.9C107.2,40.4,106.9,40.8,106.6,40.8z"/>
		<circle class="st15" cx="103.6" cy="33.8" r="1.3"/>
	</g>
	<rect x="107.9" y="31.9" class="st15" width="0.5" height="14.5"/>
</g>
<g id="_x3C_foodstall_x3E__00000138574430572165829500000014212966043668779142_">
	<circle class="clicked" cx="392.5" cy="57.9" r="9.8"/>
	<g>
		<g>
			<path class="st17" d="M396.9,51.2c-0.1-0.1-0.2-0.3-0.2-0.4c0-0.1-0.1-0.1-0.2-0.2h-7.6c-0.1,0-0.1,0.1-0.2,0.2
				c-0.4,0.6-0.7,1.3-1.1,1.9l0,0v0.5c0,0.1,0,0.1,0.1,0.2c0.1,0.3,0.4,0.6,0.7,0.7c0,0,0.1,0,0.1,0.1c0,1.1,0,2.1,0,3.2
				c0,0,0,0,0,0.1c-0.1,0-0.1,0-0.2,0c-0.2,0-0.2,0.1-0.2,0.3c0,1.9,0,3.8,0,5.6c0,0.2,0,0.4,0,0.6c0,0.1,0,0.2,0.2,0.3h9.2
				c0.1-0.1,0.2-0.1,0.2-0.3c0-2.1,0-4.2,0-6.3c0-0.2-0.1-0.2-0.2-0.2s-0.1,0-0.2,0v-0.1c0-1,0-2.1,0-3.1c0,0,0-0.1,0.1-0.1
				c0.4-0.1,0.7-0.4,0.7-0.8l0,0v-0.5C397.5,52.2,397.2,51.7,396.9,51.2z M388.2,52.5c0.3-0.5,0.6-0.9,0.8-1.4h0.1
				c1.1,0,2.3,0,3.4,0c1.2,0,2.5,0,3.7,0c0.1,0,0.1,0,0.1,0.1c0.3,0.5,0.5,0.9,0.8,1.4c0,0,0,0,0,0.1L388.2,52.5
				C388.2,52.6,388.2,52.6,388.2,52.5z M395.8,56.6c-0.9,0-1.8,0-2.7,0c-0.2,0-0.2,0.1-0.2,0.2c0,0.2,0.1,0.4,0.2,0.6c0,0,0,0,0,0.1
				h-0.9v-0.1c0-0.5,0-0.9,0-1.4c0-0.2-0.1-0.3-0.2-0.3h-0.1c0-0.1,0-0.1,0-0.2l0,0h0.1c0.1,0,0.2-0.2,0.1-0.3
				c0-0.1-0.1-0.2-0.3-0.1c-0.1,0-0.2,0.1-0.3,0.1c-0.1,0-0.1,0.1-0.1,0.2c0,0.1,0,0.2,0,0.3h-0.1c-0.2,0-0.3,0.1-0.3,0.3
				c0,0.5,0,0.9,0,1.4v0.1h-0.2v-0.1c0-0.5,0-1,0-1.6c0-0.2-0.1-0.3-0.2-0.3h-0.2c0-0.1,0-0.2,0-0.2l0,0c0,0,0.1,0,0.2-0.1
				c0.1,0,0.2-0.2,0.1-0.3c0-0.1-0.2-0.2-0.3-0.1c-0.1,0-0.2,0.1-0.3,0.1c-0.1,0-0.1,0.1-0.1,0.2c0,0.1,0,0.2,0,0.3c0,0,0,0,0,0.1
				h-0.1c-0.2,0-0.3,0.1-0.3,0.3c0,0.5,0,1,0,1.5v0.1h-0.7c0,0,0,0,0-0.1c0-1,0-2.1,0-3.1c0-0.1,0-0.1,0.1-0.1
				c0.2-0.1,0.4-0.2,0.5-0.3l0,0l0,0c0.5,0.6,1.3,0.5,1.6,0c0.4,0.5,1.2,0.5,1.6,0c0.2,0.3,0.5,0.4,0.8,0.4s0.6-0.1,0.8-0.4
				c0.2,0.3,0.5,0.4,0.8,0.4s0.6-0.1,0.8-0.4l0.1,0.1c0.1,0.1,0.3,0.2,0.4,0.2c0,0,0.1,0,0.1,0.1c0,1.1,0,2.1,0,3.2c0,0,0,0,0,0.1
				h-0.8c0,0,0,0,0-0.1c0.1-0.2,0.2-0.4,0.2-0.6C396,56.7,395.9,56.6,395.8,56.6z M395.5,57c0,0.1-0.1,0.1-0.1,0.2
				c-0.1,0.2-0.3,0.3-0.5,0.3c-0.4,0-0.7,0-1.1,0c-0.3,0-0.5-0.1-0.6-0.4c0,0,0,0,0-0.1H395.5z M391.7,56.1v1.3h-0.3v-1.3H391.7z
				 M390.3,57.4C390.3,57.4,390.3,57.5,390.3,57.4c-0.2,0.1-0.3,0.1-0.4,0.1V56h0.4v0.1C390.3,56.5,390.3,56.9,390.3,57.4z
				 M389.6,53h1.2c0,0.3-0.1,0.5-0.3,0.6c-0.2,0.1-0.4,0.1-0.7,0C389.7,53.5,389.6,53.3,389.6,53z M391.4,53h0.5c0.2,0,0.4,0,0.5,0
				h0.1c0,0.3-0.2,0.6-0.5,0.7c-0.4,0.1-0.7-0.2-0.8-0.6C391.3,53,391.3,53,391.4,53z M392.9,53h1.2c0.1,0.2,0,0.5-0.2,0.6
				s-0.5,0.2-0.7,0C393,53.5,392.9,53.3,392.9,53z M394.7,53h0.5c0.2,0,0.4,0,0.5,0c0,0,0.1,0,0.1,0.1c0,0.3-0.2,0.6-0.4,0.7
				c-0.4,0.1-0.8-0.2-0.8-0.6C394.5,53,394.5,53,394.7,53z M388.3,53.7c-0.2-0.1-0.3-0.4-0.3-0.6h1.2c0,0.2-0.1,0.5-0.3,0.6
				C388.7,53.8,388.5,53.8,388.3,53.7z M397,57.9v5.9h-0.1c-2.8,0-5.6,0-8.4,0c-0.1,0-0.1,0-0.1-0.1V58c0,0,0,0,0-0.1s0-0.1,0.1-0.1
				c1.1,0,2.3,0,3.4,0L397,57.9L397,57.9z M397.1,53.7c-0.2,0.1-0.5,0.1-0.7,0s-0.3-0.4-0.3-0.6h1.2
				C397.4,53.3,397.3,53.5,397.1,53.7z"/>
			<path class="st17" d="M395.6,60.8c-0.1-0.1-0.1-0.2-0.1-0.3c0-1.1-0.9-2.1-2-2.1c-0.6,0-1.2,0-1.7,0c-0.9,0-1.7,0.6-1.9,1.5
				c-0.1,0.2-0.1,0.5-0.1,0.7c0,0,0,0,0,0.1c-0.2,0.2-0.2,0.6,0,0.8c0,0,0,0,0,0.1c0,0.2,0,0.4,0,0.5c0.1,0.7,0.7,1.1,1.3,1.1
				c0.5,0,1,0,1.5,0s1,0,1.5,0c0.7,0,1.5-0.6,1.4-1.7v-0.1C395.8,61.3,395.8,61,395.6,60.8z M390.3,60.4c0-0.9,0.7-1.5,1.6-1.5
				c0.6,0,1.2,0,1.8,0c0.9,0,1.5,0.7,1.5,1.6c0,0.1,0,0.1-0.1,0.1c-0.8,0-1.6,0-2.4,0l0,0C391.9,60.5,391.1,60.5,390.3,60.4
				C390.3,60.5,390.3,60.5,390.3,60.4z M395.1,62.3c-0.2,0.4-0.5,0.5-0.9,0.5c-0.5,0-1,0-1.5,0s-1,0-1.5,0s-0.8-0.3-0.9-0.7
				c0-0.1,0-0.3,0-0.4l0,0c0,0,0,0,0.1,0c0.7,0,1.3,0,2,0c0.1,0,0.1,0,0.1,0.1c0.3,0.3,0.6,0.6,0.8,0.9c0.1,0.1,0.3,0.1,0.4,0
				c0.3-0.3,0.6-0.6,0.9-0.9h0.1c0.1,0,0.3,0,0.4,0h0.1C395.1,61.9,395.1,62.1,395.1,62.3z M393.1,61.7h1c-0.2,0.2-0.3,0.4-0.5,0.5
				C393.4,62.1,393.2,61.9,393.1,61.7z M395.1,61.3c-0.3,0-0.7,0-1,0c-0.5,0-0.9,0-1.4,0l0,0c-0.8,0-1.6,0-2.4,0
				c-0.1,0-0.2,0-0.2-0.1s0-0.2,0.2-0.2h0.1h4.7h0.1c0.1,0,0.2,0.1,0.2,0.2C395.3,61.2,395.2,61.3,395.1,61.3z"/>
		</g>
	</g>
</g>
<g id="_x3C_foodstall_x3E_">
	<circle class="clicked" cx="260.8" cy="312.5" r="9.8"/>
	<g>
		<g>
			<path class="st17" d="M265.2,305.8c-0.1-0.1-0.2-0.3-0.2-0.4s-0.1-0.1-0.2-0.2h-7.6c-0.1,0-0.1,0.1-0.2,0.2
				c-0.4,0.6-0.7,1.3-1.1,1.9l0,0v0.5c0,0.1,0,0.1,0.1,0.2c0.1,0.3,0.4,0.6,0.7,0.7c0,0,0.1,0,0.1,0.1c0,1.1,0,2.1,0,3.2
				c0,0,0,0,0,0.1c-0.1,0-0.1,0-0.2,0c-0.2,0-0.2,0.1-0.2,0.3c0,1.9,0,3.8,0,5.6c0,0.2,0,0.4,0,0.6c0,0.1,0,0.2,0.2,0.3h9.2
				c0.1-0.1,0.2-0.1,0.2-0.3c0-2.1,0-4.2,0-6.3c0-0.2-0.1-0.2-0.2-0.2s-0.1,0-0.2,0V312c0-1,0-2.1,0-3.1c0,0,0-0.1,0.1-0.1
				c0.4-0.1,0.7-0.4,0.7-0.8l0,0v-0.5C265.8,306.9,265.5,306.3,265.2,305.8z M256.5,307.2c0.3-0.5,0.6-0.9,0.8-1.4h0.1
				c1.1,0,2.3,0,3.4,0c1.2,0,2.5,0,3.7,0c0.1,0,0.1,0,0.1,0.1c0.3,0.5,0.5,0.9,0.8,1.4c0,0,0,0,0,0.1L256.5,307.2L256.5,307.2z
				 M264.1,311.2c-0.9,0-1.8,0-2.7,0c-0.2,0-0.2,0.1-0.2,0.2c0,0.2,0.1,0.4,0.2,0.6c0,0,0,0,0,0.1h-0.9V312c0-0.5,0-0.9,0-1.4
				c0-0.2-0.1-0.3-0.2-0.3h-0.1c0-0.1,0-0.1,0-0.2l0,0h0.1c0.1,0,0.2-0.2,0.1-0.3c0-0.1-0.1-0.2-0.3-0.1c-0.1,0-0.2,0.1-0.3,0.1
				c-0.1,0-0.1,0.1-0.1,0.2s0,0.2,0,0.3h-0.1c-0.2,0-0.3,0.1-0.3,0.3c0,0.5,0,0.9,0,1.4v0.1h-0.2V312c0-0.5,0-1,0-1.6
				c0-0.2-0.1-0.3-0.2-0.3h-0.2c0-0.1,0-0.2,0-0.2l0,0c0,0,0.1,0,0.2-0.1c0.1,0,0.2-0.2,0.1-0.3c0-0.1-0.2-0.2-0.3-0.1
				c-0.1,0-0.2,0.1-0.3,0.1c-0.1,0-0.1,0.1-0.1,0.2s0,0.2,0,0.3c0,0,0,0,0,0.1h-0.1c-0.2,0-0.3,0.1-0.3,0.3c0,0.5,0,1,0,1.5v0.1
				h-0.7c0,0,0,0,0-0.1c0-1,0-2.1,0-3.1c0-0.1,0-0.1,0.1-0.1c0.2-0.1,0.4-0.2,0.5-0.3l0,0l0,0c0.5,0.6,1.3,0.5,1.6,0
				c0.4,0.5,1.2,0.5,1.6,0c0.2,0.3,0.5,0.4,0.8,0.4s0.6-0.1,0.8-0.4c0.2,0.3,0.5,0.4,0.8,0.4s0.6-0.1,0.8-0.4l0.1,0.1
				c0.1,0.1,0.3,0.2,0.4,0.2c0,0,0.1,0,0.1,0.1c0,1.1,0,2.1,0,3.2c0,0,0,0,0,0.1H264c0,0,0,0,0-0.1c0.1-0.2,0.2-0.4,0.2-0.6
				C264.3,311.3,264.2,311.2,264.1,311.2z M263.9,311.6c0,0.1-0.1,0.1-0.1,0.2c-0.1,0.2-0.3,0.3-0.5,0.3c-0.4,0-0.7,0-1.1,0
				c-0.3,0-0.5-0.1-0.6-0.4c0,0,0,0,0-0.1H263.9z M260,310.8v1.3h-0.3v-1.3H260z M258.6,312C258.6,312.1,258.6,312.1,258.6,312
				c-0.2,0.1-0.3,0.1-0.4,0.1v-1.5h0.4v0.1C258.6,311.1,258.6,311.6,258.6,312z M258,307.6h1.2c0,0.3-0.1,0.5-0.3,0.6
				c-0.2,0.1-0.4,0.1-0.7,0C258,308.1,257.9,307.9,258,307.6z M259.7,307.6h0.5c0.2,0,0.4,0,0.5,0h0.1c0,0.3-0.2,0.6-0.5,0.7
				c-0.4,0.1-0.7-0.2-0.8-0.6C259.6,307.6,259.6,307.6,259.7,307.6z M261.2,307.6h1.2c0.1,0.2,0,0.5-0.2,0.6s-0.5,0.2-0.7,0
				C261.3,308.2,261.2,307.9,261.2,307.6z M263,307.6h0.5c0.2,0,0.4,0,0.5,0c0,0,0.1,0,0.1,0.1c0,0.3-0.2,0.6-0.4,0.7
				c-0.4,0.1-0.8-0.2-0.8-0.6C262.9,307.6,262.9,307.6,263,307.6z M256.6,308.3c-0.2-0.1-0.3-0.4-0.3-0.6h1.2c0,0.2-0.1,0.5-0.3,0.6
				C257.1,308.4,256.8,308.4,256.6,308.3z M265.3,312.5v5.9h-0.1c-2.8,0-5.6,0-8.4,0c-0.1,0-0.1,0-0.1-0.1v-5.7c0,0,0,0,0-0.1
				s0-0.1,0.1-0.1c1.1,0,2.3,0,3.4,0h5.1V312.5z M265.4,308.3c-0.2,0.1-0.5,0.1-0.7,0s-0.3-0.4-0.3-0.6h1.2
				C265.7,307.9,265.6,308.1,265.4,308.3z"/>
			<path class="st17" d="M264,315.4c-0.1-0.1-0.1-0.2-0.1-0.3c0-1.1-0.9-2.1-2-2.1c-0.6,0-1.2,0-1.7,0c-0.9,0-1.7,0.6-1.9,1.5
				c-0.1,0.2-0.1,0.5-0.1,0.7c0,0,0,0,0,0.1c-0.2,0.2-0.2,0.6,0,0.8c0,0,0,0,0,0.1c0,0.2,0,0.4,0,0.5c0.1,0.7,0.7,1.1,1.3,1.1
				c0.5,0,1,0,1.5,0s1,0,1.5,0c0.7,0,1.5-0.6,1.4-1.7V316C264.1,315.9,264.1,315.6,264,315.4z M258.6,315c0-0.9,0.7-1.5,1.6-1.5
				c0.6,0,1.2,0,1.8,0c0.9,0,1.5,0.7,1.5,1.6c0,0.1,0,0.1-0.1,0.1c-0.8,0-1.6,0-2.4,0l0,0C260.2,315.1,259.5,315.1,258.6,315
				C258.6,315.1,258.6,315.1,258.6,315z M263.4,316.9c-0.2,0.4-0.5,0.5-0.9,0.5c-0.5,0-1,0-1.5,0s-1,0-1.5,0s-0.8-0.3-0.9-0.7
				c0-0.1,0-0.3,0-0.4l0,0c0,0,0,0,0.1,0c0.7,0,1.3,0,2,0c0.1,0,0.1,0,0.1,0.1c0.3,0.3,0.6,0.6,0.8,0.9c0.1,0.1,0.3,0.1,0.4,0
				c0.3-0.3,0.6-0.6,0.9-0.9h0.1c0.1,0,0.3,0,0.4,0h0.1C263.5,316.5,263.5,316.7,263.4,316.9z M261.4,316.3h1
				c-0.2,0.2-0.3,0.4-0.5,0.5C261.7,316.7,261.5,316.5,261.4,316.3z M263.5,315.9c-0.3,0-0.7,0-1,0c-0.5,0-0.9,0-1.4,0l0,0
				c-0.8,0-1.6,0-2.4,0c-0.1,0-0.2,0-0.2-0.1s0-0.2,0.2-0.2h0.1h4.7h0.1c0.1,0,0.2,0.1,0.2,0.2C263.6,315.8,263.6,315.9,263.5,315.9
				z"/>
		</g>
	</g>
</g>
</svg>
